<?xml version="1.0" encoding="UTF-8"?>
<svg id="Layer_1" xmlns="http://www.w3.org/2000/svg" version="1.1" viewBox="0 0 100 100">
  <!-- Generator: Adobe Illustrator 29.6.0, SVG Export Plug-In . SVG Version: 2.1.1 Build 207)  -->
  <path d="M31.75,42.19s0,0,0,0c.15-.15.3-.31.45-.46-.15.15-.3.3-.46.46Z"/>
  <path d="M29.37,44.78c-.08.1-.16.2-.24.29.08-.1.16-.19.25-.29,0,0,0,0,0,0Z"/>
  <path d="M32.42,41.52c.22-.22.45-.43.67-.64-.23.21-.45.43-.67.64Z"/>
  <path d="M32.21,41.73c.07-.07.14-.14.21-.21-.07.07-.14.14-.21.21Z"/>
  <path d="M58.4,49.03c0,5.26-7.89,5.26-7.89,0s7.89-5.26,7.89,0"/>
  <path d="M51.21,38.36c0,4.99-7.48,4.99-7.48,0s7.48-4.99,7.48,0"/>
  <path d="M48.53,51.65c0,3.49-5.23,3.49-5.23,0s5.23-3.49,5.23,0"/>
  <path d="M55.44,25.93c0,4.41-6.62,4.41-6.62,0s6.62-4.41,6.62,0"/>
  <path d="M58,9.61c0,3.91-5.86,3.91-5.86,0s5.86-3.91,5.86,0"/>
  <path d="M78.05,83.02c-1.23-5.02-13.49-33.45-14.16-35.01l-4.95-12.85-.11-13.41c.14-.14.29-.3.44-.47.66-.74,1.23-1.55,1.03-2.43-.25-1.08-1.47-1.34-2.05-1.47-.63-.14-1.5-.26-2.57-.36-2.02-.2-4.59-.31-7.04-.31-1.52,0-3.69.04-5.43.26-1.19.14-3.41.42-3.57,2.06-.04.36-.12,1.17,1.61,2.78v13.77c-1.43,3.51-17.12,41.86-18.32,44.47-.66,1.44-2.04,5.14-.57,8.46.93,2.1,2.77,3.6,5.47,4.46.4.13,1.07.34,11.4.34,7.81,0,18.16-.12,25.01-.2,3.47-.04,6.21-.07,7.24-.07.17,0,.29,0,.36,0h.09c1,0,2.18-.54,3.25-1.4.21-.07.36-.15.43-.22.12-.14.23-.3.33-.47.2-.2.38-.41.56-.64,1.64-2.09,2.19-4.68,1.55-7.29h0ZM42.63,35.85v-14.66s-1.68-1.43-1.62-2.01c.08-.77,3.68-1.07,7.62-1.07,4.82,0,10.16.45,10.3,1.07.12.49-1.51,2.01-1.51,2.01l.11,14.25,5.05,13.11s1.33,3.08,3.17,7.42h-31.36c4.27-10.4,8.24-20.11,8.24-20.11h0Z"/>
</svg>