<?xml version="1.0" encoding="UTF-8"?>
<svg width="100pt" height="100pt" version="1.1" viewBox="0 0 100 100" xmlns="http://www.w3.org/2000/svg">
 <g>
  <path d="m-276.43 191.95h92.512v22.254h-92.512z"/>
  <path d="m-271.2 215.3h82.039v40.145h-82.039z"/>
  <path d="m-232.84 176.84c-1.293-5.6953-5.3906-12.238-9.1484-14.141-1.1758-0.59766-4.0117-0.37109-5.2773 0-2.5 0.73438-5.8633 3.75-8.6523 5.8242-3.9453 2.9336-5.0625 7.3789-2.0352 11.227 2.4258 3.0859 5.8594 5.4688 9.375 7.3008 4.75 2.4727 15.52 4.0156 17.32 4.5195l-0.21875-1.0078c-0.60547-3.6641 0.17578-6.957-1.3633-13.723zm-17.199-5.957c4.8203-4.0234 11.973 11.898 16.469 18.957-6.9805-5.1719-21.289-14.934-16.469-18.957z"/>
  <path d="m-203.43 172.94c-1.4336-1.6602-2.918-3.2891-4.4375-4.875-4.5859-4.793-10.254-5.1133-14.156 0.17578-3.1875 4.3164-8.9961 22.828-8.9961 22.828 1.3672 0 22.223-2.6914 25.992-4.9531 5.3203-3.207 5.668-8.4609 1.5977-13.176zm-24.422 15.965c5.5234-6.7109 16-20.5 19.773-15.48 3.7734 5.0156-12.492 11.352-19.773 15.48z"/>
  <path d="m-45.637 197.8c-0.003906-3.0156-0.66016-5.8242-1.8828-8.2969v-0.035156c-0.070313-0.125-0.14844-0.23828-0.21875-0.35938-1.1562-2.1992-4.7617-5.2109-4.7617-5.2109-2.7422-1.9844-6.0586-3.1758-9.6719-3.3555-1.0469-0.050781-2.1016-0.070313-3.1484-0.015625-0.70703 0.035156-1.1055-0.18359-1.4531-0.82031-1.293-2.3867-2.6953-4.7148-3.9805-7.1016-1.082-2.0039-2.793-2.9883-4.9648-3.0039-8.8008-0.050781-17.602-0.046874-26.398-0.003906-2.1523 0.011719-3.8242 0.99609-4.8984 2.9453-1.3516 2.4609-2.7734 4.8828-4.1367 7.332-0.25391 0.45312-0.53125 0.65625-1.0742 0.64453-1.9375-0.035156-3.8789-0.015625-5.7969-0.015625-0.60937-2.7344-1.7812-3.6523-4.5625-3.6562-1.9453 0-3.8906-0.007812-5.8359 0-2.6875 0.011719-3.9688 1.1758-4.3086 3.8125-0.023437 0.21094-0.19141 0.46484-0.38281 0.63281-0.066407 0.058593-0.13281 0.10547-0.20312 0.14062-4.4805 2.1289-6.6641 5.6758-6.6602 10.609 0 12.012-0.003907 24.023 0.003906 36.031 0.003906 5.9102 2.5039 11.035 6.8633 14.348 1.5352 1.1641 3.293 2.1094 5.2617 2.7812 1.9492 0.66016 4.1055 0.95312 6.1719 0.96094 18.375 0.066407 36.754 0.027344 55.133 0.050782v0.003906c1.2031 0 2.4023 0.003906 3.6055 0 0.027344 0 0.054688-0.003906 0.082031-0.003906 2.9844-0.015625 5.7656-0.67188 8.2148-1.8789h0.035156c0.125-0.066407 0.23828-0.14453 0.35938-0.21875 2.1992-1.1562 5.207-4.7617 5.207-4.7617 1.9844-2.7422 3.1797-6.0586 3.3555-9.6719 0.023438-0.51953 0.042969-1.043 0.046875-1.5625v-0.027344c0.003907-10.094 0.007813-20.195 0-30.293zm-80.066-4.4805c-2.8984-0.03125-5.2891-2.4297-5.3164-5.332-0.023438-2.8945 2.4492-5.3789 5.3672-5.3789 2.9336-0.003906 5.3398 2.4297 5.332 5.3828-0.011719 2.9492-2.4453 5.3555-5.3828 5.3281zm37.605 39.711c-9.3828 0.066406-17.113-7.5938-17.184-17.027-0.070312-9.4766 7.5391-17.199 17.016-17.273 9.5117-0.070313 17.211 7.5469 17.281 17.105 0.074219 9.418-7.6016 17.129-17.113 17.195zm-20.219-51.547c1.1211-1.9297 2.2773-3.8477 3.3789-5.7891 0.95703-1.6836 2.4492-2.5312 4.3672-2.5391 7.8477-0.035156 15.695-0.042969 23.547 0.003906 1.9375 0.011719 3.4648 0.85938 4.4297 2.5859 1.0742 1.9297 2.2383 3.8164 3.332 5.7383z"/>
  <path d="m89.07 237.59c-0.71875-0.28125-1.1523-0.88672-1.2109-1.5742-0.10547-1.1445-0.70703-1.5586-1.7461-1.7969-1.0156-0.23438-1.7969-0.91016-2.2773-1.8828-0.37109-0.74609-0.27344-1.5039 0.46875-1.7812 1.4648-0.54688 2.6602-1.3047 3.3086-2.7812 0.17188-0.38672 0.96484-0.4375 0.52344-1.1797-0.37109-0.625-0.80469-0.71875-1.4844-0.71094-0.93359 0.007813-2.0234 0.28125-2.7109-0.66406-0.69922-0.95312-1.3477-1.0742-2.375-0.37109-1.5273 1.0469-3.2031 0.82422-3.8555-0.50781-0.40234-0.82031-0.92578-1.0078-1.6836-1.0312-0.69141-0.90234-1.7266-1.5117-2.1484-2.6641-0.26172-0.71484-0.53125-1.5664-1.457-1.7188-2.5938-0.42188-4.5352-1.8203-5.2734-4.2852-0.72656-2.4336-2.4453-2.6562-4.4375-2.7188-0.14063-0.003907-0.28125-0.003907-0.41797-0.019531-0.50391-0.066407-1.0859-0.070313-1.2266-0.69531-0.14453-0.63672 0.20312-1.0703 0.78125-1.3047 2.0078-0.82813 2.5039-1.5508 4.4766-0.078126 1.4648 1.0938 2.9023-0.23047 3.4023-1.8906 0.19141-0.62891-0.93359-0.81641-0.125-1.0039 0.88672-0.20312 1.7227-0.92969 1.7539-1.5977 0.039062-0.85938-0.43359-2.2734 0.0625-3.0391 0.19141-0.29297-0.10547-0.50781-0.34375-0.6875-0.67969-0.51172 0.03125-2.6758-1.3789-1.5977-0.34766 0.26562-0.95703-0.0625-1.1562-0.35938-0.57812-0.84375-0.89453-0.35156-1.7383-0.8125-1.4492-0.78906-2.9805-1.1172-4.3359-2.0547-1.6602-1.1445-3.2891-4.668-5.0742-4.2578-0.78125-1.3164-0.28516-3.0312-0.25-3.6641 0.058594-1.0234-1.2773-0.085938-1.9102-0.72266-1.8477-1.8594-0.015625-3.6953 1.7891-4.9609 1.0625-0.74609 0.96484-1.3281 2.0312-2.1172 0.82812-0.61328 1.8242-1.3945 1.9727-2.2539 0.14844-0.85938-0.074219-1.1055-0.46875-1.4102-0.47266-0.36719-1.0586 0.33203-1.4492-0.14453-0.46094-0.5625-0.80859-1.3164-1.5508-1.5469-1.0078-0.31641-1.1914-0.91016-0.99219-1.8711 0.19141-0.92188-0.26953-1.0898-1.0234-0.63281-0.51562 0.30859-1.1797-0.59375-2.875-0.78516-1.6953-0.19141-2.7305 0.14453-4.0859-1.6719-0.21875 0.73828-0.58984 1.2734-1.3125 0.94141-0.74219-0.33984-0.99219-1.1055-0.92188-1.8672 0.078125-0.82422 0.73438-0.77344 1.3828-0.72656 0.88281 0.066406 2.1172 0.54687 2.4844-0.48828 0.30078-0.85156-0.86719-1.3906-1.4961-1.9648-0.42578-0.38672-0.97656-0.21875-1.4688-0.19922-1.043 0.039062-2.0391 0.1875-1.6367-1.4844 0.1875-0.77344-0.91406-1.9766-1.2227-1.6367-1.1367 1.2461-2.3438 0.70312-3.582 0.29688-0.32031-0.10547-0.73438-0.47656-0.99609-0.03125-0.29297 0.49609 0.16406 0.71094 0.53125 0.92578 0.31641 0.18359 0.71094 0.38672 0.59766 0.83203-0.125 0.5-0.60547 0.55469-1.0156 0.53125-1.6523-0.10547-3.3438 0.28516-4.9531-0.41406-0.67188-0.29297-1.1836-0.085937-1.6562 0.5625-0.42969 0.58594-1 1.6094-1.8477 0.28125-0.24609-0.38281-0.60547-0.074219-0.83984 0.11719-0.92969 0.78125-1.7617 0.46484-2.6367-0.12109-0.48047-0.32031-1.082-0.90234-1.6289-0.46875-1.0977 0.87109-1.8438 0.46094-2.8047-0.25-0.60547-0.44922-1.6055-1.207-2.0703 0.44922-0.15625 0.55859-1.1602 1.1641-1.7266 0.83203-1.1719-0.68359-1.9961-0.058594-2.9688 0.31641-0.82031 0.31641-1.6992 0.39062-2.6016 0.32031-0.875-0.066407-1.7734-0.046876-2.4414 0.71094-0.85938 0.98047-1.9531 0.94141-3.1758 0.91797-2.3164-0.050782-4.6719-1.4297-6.957 0.10547v2.7891c0.55469 0.21094 1.1094 0.42969 1.6719 0.63281 2.168 0.78906 3.8398 2.1172 4.1172 4.5234 0.13281 1.1445 0.42969 2.1484 0.96875 3.1289 0.41797 0.76172 1.0469 1.4414 1.0195 2.3906-0.0625 2.4414-0.76953 4.5977-2.375 6.5273-0.77734 0.94141-1.0195 1.0156-1.9102 1.8672l-0.65625 0.41016c-0.9375 0.13281-0.96484 0.96094-0.17188 1.7344 0.56641 0.55078 1.418 1.1523 0.94531 2.1055-0.98047 1.9883 0.015625 3.3203 1.3281 4.6133 0.5 0.49219 0.94141 1.0391 0.48438 1.8242-0.27344 0.46875 0.11719 0.73437 0.36719 1.0742 0.61328 0.83203 0.91406 1.5586-0.56641 1.8438-0.97656 0.19141-1.0898 0.77344-0.26953 1.4062 0.25 0.19531 0.54688 0.33203 0.82422 0.49609 1.3242 0.76562 2.9219 0.78516 4.2266 1.668 1.9375 1.3125 4.0234 2.0273 6.3555 0.90234 0.41016-0.19531 0.92969-0.17187 1.3594 0.046876 0.55469 0.28516 1.0312 0.035156 1.5742-0.035157 1.0742-0.13672 2.1016-0.80078 3.2266-0.41406 1.8867 0.64062 3.6602 1.543 5.1953 2.8008 0.89453 0.73438 2.0039 1.3672 2.3555 2.5898 0.28516 0.98828 0.84766 1.75 1.5469 2.4805 1.2773 1.3438 3.1719 2.0156 4.0234 3.8438 0.22266 0.47266 0.87109 0.75391 1.5898 0.47266 0.63672-0.24609 1.4258-0.55078 2.0156-0.38281 1.6133 0.46875 2.6055-0.30859 3.6445-1.3125 0.83984-0.8125 1.8672-0.65234 2.6094 0.29297 0.94141 1.1953 2.0039 2.3086 2.5977 3.7461-0.41797 0.44141-0.39063 1.0234-0.5 1.5625-0.078126 0.39062-0.011719 0.76953 0.40625 0.92969 0.41406 0.16016 0.69531-0.066406 0.91797-0.41406 0.33203-0.51953 0.69922-1.0703 1.4258-0.84375 0.74219 0.23047 1.2695 0.67969 1.3828 1.5508 0.089844 0.67969 0.42188 1.2617 1.2695 1.168 0.92969-0.10156 1.6016 0.3125 2.125 1.0312 0.42578 0.58594 0.98438 0.73828 1.5742 0.34766 1.8555-1.2305 3.8242-2.0625 6.0195-2.6094 2.1094-0.52344 3.5039 0.14453 3.543 2.3086 0.007812 0.37109-0.046875 0.79688 0.10938 1.0977 0.55078 1.043 0.16406 1.8008-0.50781 2.6211-1.1562 1.4102-1.1094 1.4453 0.71094 1.9531 0.26562 0.074218 0.63672 0.12891 0.75391 0.31641 0.82031 1.3672 2.2734 1.8164 3.5352 2.5625 0.92969 0.55078 1.2812 1.3438 0.39063 2.2812-0.91406 0.96484-0.71484 1.9141 0.050781 2.8477 0.67969 0.82422 1.25 1.7148 1.6406 2.707 1.0273 2.6094 1.2852 5.4883 2.9766 7.793 0.46484 0 1.5391-0.6875 2.0039-0.6875 0.48438-0.35156 0.58984-0.72266 1.1289-0.91016 1.0859-0.37891 1.6289-1.1797 2.9141-0.51953 1.168 0.60156 2.7461 1.5859 3.7383 0.76172 0.22656-0.1875 0.65625-0.32031 0.59375-0.41797-0.85547-1.3984-0.96875-2.7266-0.23437-4.3164 0.69531-1.5-0.30078-3.4609-1.707-4.2422-0.35156-0.19922-0.60156-0.57422-0.92578-0.83203-0.64453-0.51172-0.24219-0.53906 0.12891-1.1758 0.39062-0.67578 0.70312-0.67969 1.4102-0.4375 0.55859 0.19141 1.0117-0.26562 1.582-0.12891 0.85938 0.20312 1.4258-0.45312 1.7852-0.99219 0.21094-0.30859-0.37891-0.82422-0.88281-1.0195z" fill-rule="evenodd"/>
  <path d="m334.08 209.37c0.89844 0.61719 2.0742 1.3164 3.1289 2.1602 4.2344 3.3789 8.2383 7.082 12.707 10.113 3.2422 2.1992 3.4688 4.3828 2.4922 7.8867-3.0977 11.105-9.668 19.121-19.93 24.293-2.5898 1.3047-4.5977 1.5508-6.9844-0.55469-4.4492-3.9258-9.3164-7.3867-13.691-11.387-1.1719-1.0742-1.9453-3.5508-1.6289-5.125 2.5-12.328 9.9023-20.883 21.117-26.285 0.78906-0.37891 1.6211-0.64453 2.7891-1.1016zm1.9414 24.488c-3.543-5.2617 0.64062-3.9688 2.4492-4.25-0.42578-1.7812-0.76953-3.2305-1.0938-4.5859h-5.2617c4.3008 5.7656-1.2656 2.9531-3.0508 3.9297 3.5273 4.4414 0.003906 3.7266-2.8594 3.5625 2.9609 4.6211-0.35547 4.0273-3.0352 3.6172 0.50391 1.9844 0.93359 3.6602 1.2734 4.9883h4.9453c-2.4141-3.9648-0.39453-4.5977 3.3047-3.7969-2.0312-3.5156-1.457-4.8945 3.3281-3.4648z" fill-rule="evenodd"/>
  <path d="m338.66 208.53c10.426-3.4297 15.516 0.58984 14.234 10.77-0.48828-0.21094-1.0078-0.32422-1.3828-0.61719-4.1133-3.2188-8.1992-6.4688-12.852-10.152z" fill-rule="evenodd"/>
  <path d="m309.3 244.84c4.9727 4.0312 9.3398 7.5703 13.969 11.324-9.3594 3.5156-13.992-0.13281-13.969-11.324z" fill-rule="evenodd"/>
  <path d="m336.02 233.86c-4.7852-1.4336-5.3594-0.050781-3.3281 3.457-3.7031-0.80078-5.7188-0.16797-3.3047 3.7969h-4.9453c-0.33984-1.3281-0.76562-3.0039-1.2734-4.9883 2.6797 0.41016 5.9961 1.0039 3.0352-3.6172 2.8633 0.16406 6.3867 0.88281 2.8594-3.5625 1.7852-0.97656 7.3555 1.8359 3.0508-3.9297h5.2617c0.32422 1.3555 0.66797 2.8047 1.0938 4.5859-1.8086 0.28906-5.9922-1.0039-2.4492 4.2578z" fill-rule="evenodd"/>
  <path d="m750.33 563.57s4.5547 23.652-88.391 23.652h-7.2656c-92.957 0-88.398-23.652-88.398-23.652v-47.32c0-40.125 37.648-54.344 63.801-59.367l30.934 19.855 34.453-17.855h0.007812c25.012 6.457 54.859 21.652 54.859 57.371z"/>
  <path d="m502.71 256.82h-0.007812l-34.453 17.855-30.934-19.855c-26.152 5.0234-63.801 19.246-63.801 59.367v47.32s-4.5547 23.652 88.398 23.652h7.2656c15.617 0 28.473-0.67187 39.07-1.7812v-125c-1.8633-0.56641-3.7109-1.0898-5.5391-1.5625z"/>
  <path d="m557.57 361.52v-47.32c0-33.113-25.652-48.578-49.32-55.809v125c52.465-5.5 49.32-21.867 49.32-21.867z"/>
  <path d="m329.35 333.76l-30.145-36.477c-21.094-25.523-50.723-21.105-73.57-11.598l79.629 96.352c36.934-37.664 24.086-48.277 24.086-48.277z"/>
  <path d="m278.4 597.87s4.5547 31.254-88.391 31.254h-7.2656c-92.957 0-88.398-31.254-88.398-31.254v-62.531c0-53.023 37.648-71.816 63.801-78.453l30.934 26.238 34.453-23.598h0.007813c25.012 8.5312 54.859 28.613 54.859 75.812z"/>
  <path d="m300.55 514.26l-34.77-32.098c-24.328-22.461-53.094-14.102-74.461-1.6133l91.844 84.789c31.547-42.285 17.387-51.078 17.387-51.078z"/>
  <path d="m495.91 535.9c12.512-13.262 25.863-25.824 37.301-39.938 14.879-18.359 35.672-25.535 56.355-33.477 6.8477-2.6289 13.672-5.3281 20.449-8.1406 2.5156-1.043 4.2148-0.95703 6.4102 1.1445 26.684 25.566 63.199 25.449 90.535 0.039062 1.2461-1.1562 4.1602-1.7344 5.7383-1.1289 18.594 7.1562 37.086 14.582 55.586 21.977 1.1133 0.44531 2.2734 1.0312 3.1172 1.8555 19.066 18.594 38.094 37.23 57.5 56.223-10.535 8.4336-20.844 16.695-31.164 24.945-10.395 8.3086-20.793 16.605-31.359 25.047-5.9492-5.418-11.75-10.707-18.25-16.629v187.79h-172.87v-188.03c-6.6445 6.0352-12.43 11.285-18.562 16.855-20.758-16.574-41.516-33.145-60.789-48.535z" fill-rule="evenodd"/>
  <path d="m1149.4 510c-14.879-18.359-35.672-25.535-56.355-33.477-0.48437-0.1875-0.96875-0.37891-1.4531-0.56641-12.613-6.7891-27.113-10.609-39.32-12.754l-33.066 19.395-33.066-19.395c-12.211 2.1445-26.707 5.9648-39.32 12.754-0.48438 0.1875-0.96875 0.38281-1.4531 0.56641-20.684 7.9414-41.477 15.117-56.355 33.477-11.438 14.113-35.762 37.648-48.27 50.91 19.273 15.391 36.359 35.633 57.117 52.207 5.707-5.1797 23.758-22.738 31.605-30.027 0.51172 0.22266 1.043 0.44531 1.5977 0.66797v185.89h87.617 1.0508 87.617v-185.89c0.55078-0.22266 1.0859-0.44141 1.5977-0.66797 7.8477 7.2891 25.902 24.848 31.605 30.027 20.758-16.574 37.844-36.816 57.117-52.207-12.504-13.262-36.828-36.797-48.266-50.91z"/>
  <path d="m1554.6 510.6c-0.11719-0.125-0.24219-0.25391-0.36328-0.38281-4.3867 3.8203-8.6953 7.8477-12.992 11.98 4.3828-4.0586 8.8086-7.9688 13.355-11.598z"/>
  <path d="m1472.2 526.81c-0.51172 0.22266-1.043 0.44531-1.5977 0.66797v9.7461c8.8555 8.4023 22.145 21.277 26.891 25.586 7.4766-5.9688 14.469-12.414 21.266-18.934-4.8164 4.4609-9.7656 8.8281-14.949 12.965-5.707-5.1836-23.762-22.742-31.609-30.031z"/>
  <path d="m1381.9 713.37h-87.617v-185.89c-0.55078-0.22266-1.0859-0.44141-1.5977-0.66797-1.8008 1.6719-4.1367 3.8867-6.7383 6.3633 0.14062-0.13281 0.28516-0.26953 0.42188-0.39453 0.51172 0.22266 1.043 0.44531 1.5977 0.66797v185.89h87.617 1.0508 87.617v-5.9688h-81.301-1.0508z"/>
  <path d="m1204 504.63c12.512-13.262 36.832-36.797 48.27-50.91 1.1133-1.375 2.2656-2.6797 3.4414-3.9336-3.4648 2.9102-6.7344 6.1719-9.7578 9.9023-11.438 14.113-35.762 37.648-48.27 50.91 19.273 15.391 36.359 35.633 57.117 52.207 1.7109-1.5508 4.5312-4.2188 7.8516-7.3828-0.57422 0.53516-1.0977 1.0156-1.5352 1.4141-20.758-16.578-37.844-36.82-57.117-52.207z"/>
  <path d="m1303.7 425.64c12.613-6.7891 27.113-10.609 39.32-12.754l33.066 19.395 33.066-19.395c12.211 2.1445 26.707 5.9648 39.32 12.754 0.48438 0.1875 0.96875 0.38281 1.4531 0.56641 20.684 7.9414 41.477 15.117 56.355 33.477 11.332 13.98 35.301 37.203 47.91 50.527 2.2031-1.918 4.4258-3.7891 6.6797-5.5898-12.512-13.262-36.832-36.797-48.27-50.91-14.879-18.359-35.672-25.535-56.355-33.477-0.48438-0.1875-0.96875-0.37891-1.4531-0.56641-12.613-6.7891-27.113-10.609-39.32-12.754l-33.066 19.395-33.066-19.395c-12.211 2.1445-26.707 5.9648-39.32 12.754-0.48438 0.1875-0.96875 0.38281-1.4531 0.56641-19.133 7.3477-38.359 14.047-52.914 29.543 13.574-11.398 30.117-17.246 46.598-23.574 0.48047-0.17969 0.96484-0.375 1.4492-0.5625z"/>
  <path d="m1518.7 543.87c7.7305-7.1602 15.105-14.566 22.5-21.672-7.5039 6.9453-14.879 14.355-22.5 21.672z"/>
  <path d="m1464.3 533.44v179.93h6.3164v-176.15c-1.7891-1.6953-3.3984-3.2188-4.7188-4.4414-0.51172 0.22266-1.043 0.44531-1.5977 0.66406z"/>
  <path d="m1286 533.17c-5.5977 5.2188-15.766 15.031-23.332 22.25 5.1836-4.8242 15.465-14.754 23.332-22.25z"/>
  <path d="m1554.2 510.21c-12.609-13.328-36.578-36.547-47.91-50.527-14.879-18.359-35.672-25.535-56.355-33.477-0.48438-0.1875-0.96875-0.37891-1.4531-0.56641-12.613-6.7891-27.113-10.609-39.32-12.754l-33.066 19.395-33.066-19.395c-12.211 2.1445-26.707 5.9648-39.32 12.754-0.48438 0.1875-0.96875 0.38281-1.4531 0.56641-16.48 6.3281-33.023 12.176-46.598 23.574-1.1797 1.2539-2.3281 2.5586-3.4414 3.9336-11.438 14.113-35.762 37.648-48.27 50.91 19.273 15.391 36.359 35.633 57.117 52.207 0.4375-0.39844 0.96094-0.87891 1.5352-1.4141 7.5703-7.2148 17.738-17.031 23.332-22.25 2.6016-2.4766 4.9375-4.6914 6.7383-6.3633 0.51172 0.22266 1.043 0.44531 1.5977 0.66797v185.89h87.617 1.0508 81.301v-179.93c0.55078-0.22266 1.0859-0.44141 1.5977-0.66797 1.3203 1.2266 2.9297 2.7461 4.7188 4.4414v-9.7461c0.55078-0.22266 1.0859-0.44141 1.5977-0.66797 7.8477 7.2891 25.902 24.848 31.605 30.027 5.1836-4.1367 10.133-8.5039 14.949-12.965 7.625-7.3164 15-14.723 22.5-21.672 4.3047-4.1328 8.6094-8.1602 12.996-11.98z"/>
  <path d="m1585.3 671.97c-5.0078 0-9.8672 0.019531-14.73-0.007812-3.375-0.019532-6.2266 1.1289-6.2656 4.8125-0.042969 3.7109 2.8086 4.8867 6.1797 4.8828 4.8711-0.003906 9.7422 0 14.922 0v10.309c-5.043 0-9.8984 0.023437-14.758-0.007813-3.3555-0.019531-6.2305 1.0469-6.3086 4.7578-0.078125 3.7383 2.7656 4.918 6.125 4.9258 4.8711 0.011719 9.7422 0.003906 14.934 0.003906v10.324c-5.0156 0-9.8711-0.023438-14.727 0.007812-3.2578 0.019532-6.1445 0.80859-6.1797 4.7852-0.035156 3.9688 2.8008 4.8516 6.082 4.875 4.8984 0.035156 9.8008 0.007812 15.133 0.007812v10.32c-5.2305 0-10.113-0.003906-14.996 0-3.3086 0.003906-6.168 0.94141-6.1875 4.8047-0.019532 3.8828 2.9062 4.8203 6.1641 4.8594 4.8945 0.058594 9.7891 0.015625 15.25 0.015625v127.12c-5.8594-1.6094-11.68-2.6367-17.051-4.7812-22.082-8.8125-37.547-25.344-50.176-44.727-18.887-28.996-29.492-60.938-32.254-95.414-4.0938-51.059 8.6562-97.547 38.938-138.9 12.508-17.078 27.902-30.98 48.762-37.406 3.4375-1.0586 7.0508-1.5391 11.148-2.4102-0.003906 42.633-0.003906 84.441-0.003906 126.84z" fill-rule="evenodd"/>
  <path d="m1596.3 868.64v-127.09c4.7812 0 9.4531-0.03125 14.129 0.011719 3.4414 0.027344 6.7891-0.67969 6.9219-4.6992 0.14844-4.5039-3.5938-5.0273-7.0781-5.1055-4.5195-0.097656-9.0469-0.023437-13.941-0.023437v-10.18c4.6797 0 9.3477-0.011719 14.02 0.003907 3.4023 0.011718 6.8047-0.59766 6.8945-4.6875 0.10156-4.5117-3.4453-4.9844-7.0664-4.9219-4.5195 0.078126-9.043 0.019532-13.887 0.019532v-10.387c4.8203 0 9.5 0.019531 14.18-0.007813 3.3867-0.019531 6.6289-0.62891 6.707-4.8633 0.078124-4.3477-3.4141-4.8555-6.6367-4.9805-4.6992-0.18359-9.4141-0.046874-14.562-0.046874v-10.023c4.7383 0 9.3945 0.070312 14.051-0.023438 3.4492-0.066406 7.1992-0.40625 7.1016-5.0117-0.10156-4.6328-3.8516-4.6719-7.3203-4.6562-4.5234 0.019531-9.0469 0.003906-14.102 0.003906v-127.19c5.7305 1.5703 11.383 2.5547 16.59 4.6406 19.352 7.75 33.742 21.691 45.688 38.277 21.777 30.23 34.012 64.125 37.16 101.16 4.3672 51.402-8.5469 98.219-39.039 139.88-11.965 16.344-26.754 29.656-46.348 36.523-4.0664 1.418-8.375 2.125-13.461 3.3867z" fill-rule="evenodd"/>
  <path d="m1288.4-53.441v239.3h414.74v-239.3zm83.527 176.61c-10.484-7.1602-19.277-15.25-27.203-24.324-1.2656-1.4492-2.4258-2.9961-3.5742-4.543-13.395-18.094-13.41-29.961-0.09375-48.078 7.5078-10.215 23.344-24.773 30.867-28.258 0.003906 34.879 0.003906 69.641 0.003906 105.2zm223.9 18.293c-30.445 15.617-62.398 25.844-96.867 26.051-29.129 0.17578-56.758-7.1641-83.238-19.012-5.4258-2.4258-10.809-4.9922-15.977-7.9141-1.4414-0.81641-2.8828-3.1406-2.8867-4.7773-0.15625-43.656-0.16016-87.316 0.011719-130.97 0.007812-1.7539 1.6055-4.3008 3.1719-5.1289 28.945-15.277 59.398-25.336 92.438-26.484 37.445-1.3008 71.781 9.4609 104.45 26.668 1.5859 0.83594 2.875 3.8203 2.8945 5.8164 0.20312 21.562 0.12891 43.129 0.12891 64.695 0 21.215-0.074219 42.43 0.070312 63.645 0.027344 3.543-0.84766 5.6992-4.1953 7.4141zm63.969-53.418c-7.6328 12.102-24.508 29.145-35.129 34.613v-105.69c4.4453 3.5195 8.6016 6.0977 11.855 9.5312 7.918 8.3477 16.078 16.598 22.914 25.797 8.4727 11.395 8 23.637 0.35938 35.75z"/>
  <path d="m1614.7 309.81c0-21.566 0.074219-43.133-0.12891-64.695-0.019531-1.9961-1.3047-4.9805-2.8945-5.8164-32.664-17.203-67-27.965-104.45-26.668-33.043 1.1484-63.492 11.207-92.438 26.484-1.5664 0.82812-3.1641 3.375-3.1719 5.1289-0.17578 43.656-0.16797 87.316-0.011719 130.97 0.007813 1.6367 1.4453 3.9609 2.8867 4.7773 5.1641 2.9219 10.551 5.4883 15.977 7.9141 26.48 11.848 54.109 19.184 83.238 19.012 34.469-0.20703 66.422-10.43 96.867-26.051 3.3477-1.7188 4.2227-3.875 4.1953-7.4141-0.14453-21.215-0.070313-42.43-0.070313-63.645zm-46.23 17.188h-10.023v-11.684h-16.172v11.691h-10.07v-11.668h-16.527v11.707h-9.8203v-11.727h-16.746v11.789h-9.8906c-0.17578-3.9883-0.33984-7.7578-0.51953-11.852h-15.926v11.816h-10.203v-34.844h9.8906v11.824h16.523v-11.824h9.8281v11.777h16.562v-11.66h10.02c0.17578 3.9062 0.34375 7.6797 0.52734 11.734h15.801v-11.762h10.461v11.793h15.871c0.16797-3.7852 0.34375-7.6953 0.53125-11.887h9.8867c-0.003907 11.457-0.003907 22.922-0.003907 34.773z"/>
  <path d="m1355.8 285.62c-13.316 18.117-13.301 29.984 0.09375 48.078 1.1445 1.5508 2.3047 3.0938 3.5742 4.543 7.9258 9.0742 16.719 17.164 27.203 24.324v-105.2c-7.5273 3.4844-23.363 18.043-30.871 28.258z"/>
  <path d="m1651.3 265.9c-3.2539-3.4297-7.4102-6.0078-11.855-9.5312v105.69c10.621-5.4688 27.496-22.508 35.129-34.613 7.6406-12.113 8.1133-24.355-0.35938-35.754-6.8359-9.1992-14.996-17.449-22.914-25.793z"/>
  <path d="m1926.5 278.42h-15.871v-11.793h-10.461v11.762h-15.801c-0.18359-4.0586-0.35156-7.8281-0.52734-11.734h-10.02v11.66h-16.562v-11.777h-9.8281v11.824h-16.523v-11.824h-9.8906v34.844h10.203v-11.816h15.926c0.17969 4.0938 0.34375 7.8633 0.51953 11.852h9.8906v-11.789h16.746v11.727h9.8203v-11.707h16.527v11.668h10.07v-11.691h16.172v11.684h10.023v-34.781h-9.8867c-0.18359 4.1992-0.35938 8.1133-0.52734 11.895z"/>
  <path d="m2234.5 622.96c0-21.566 0.074219-43.133-0.12891-64.695-0.019531-1.9961-1.3047-4.9805-2.8945-5.8164-32.664-17.203-67-27.965-104.45-26.668-33.043 1.1484-63.492 11.207-92.438 26.484-1.5664 0.82812-3.1641 3.375-3.1719 5.1289-0.17578 43.656-0.16797 87.316-0.011719 130.97 0.007813 1.6367 1.4453 3.9609 2.8867 4.7773 5.1641 2.9219 10.551 5.4883 15.977 7.9141 26.48 11.848 54.109 19.184 83.238 19.012 34.469-0.20703 66.422-10.43 96.867-26.051 3.3477-1.7188 4.2227-3.875 4.1953-7.4141-0.14062-21.211-0.070313-42.426-0.070313-63.645z"/>
  <path d="m1975.3 598.54c-13.316 18.117-13.301 29.984 0.09375 48.078 1.1445 1.5508 2.3047 3.0938 3.5742 4.543 7.9258 9.0742 16.719 17.164 27.203 24.324v-105.2c-7.5273 3.4844-23.363 18.043-30.871 28.258z"/>
  <path d="m2270.7 579.56c-3.2539-3.4297-7.4102-6.0078-11.855-9.5312v105.69c10.621-5.4688 27.496-22.512 35.129-34.613 7.6406-12.117 8.1133-24.355-0.35938-35.754-6.8359-9.1953-14.996-17.445-22.914-25.793z"/>
  <path d="m1271.4 204.68c-6.8398-9.1992-14.996-17.449-22.914-25.797-3.2539-3.4297-7.4102-6.0078-11.855-9.5312v105.69c10.621-5.4688 27.496-22.508 35.129-34.613 7.6406-12.113 8.1133-24.352-0.35938-35.75z" fill-rule="evenodd"/>
  <path d="m878.28 416.38c-0.1875 4.1914-0.36328 8.1016-0.53125 11.887h-15.871v-11.793h-10.461v11.766h-15.801c-0.18359-4.0586-0.35156-7.8281-0.52734-11.738h-10.02v11.664h-16.562v-11.777h-9.8281v11.824h-16.301v-11.832h-9.8867v0.007813h-0.23047v5.1289c-0.10156 2.3086-0.20312 4.5586-0.30078 6.75h-15.871v-11.793h-10.461v11.766h-15.801c-0.18359-4.0586-0.35156-7.8281-0.52734-11.738h-10.02v11.664h-16.562v-11.777h-9.8281v11.824h-16.523v-11.824h-9.8906v34.844h10.203v-11.816h15.926c0.17969 4.0938 0.34375 7.8633 0.51953 11.852h9.8906v-11.789h16.746v11.727h9.8203v-11.707h16.527v11.668h10.07v-11.691h16.086v11.754h10.203v-11.816c5.6836 0 10.887 0.13281 16.121 0.13281 0.17969 4.0938-0.17578 7.5977 0 11.586 3.3984 0 6.6094 0.13281 10.215 0.13281v-11.789h16.746v11.727h9.8203v-11.707h16.527v11.668h10.07v-11.691h16.172v11.684h10.023v-34.781c-3.4844 0.007812-6.5625 0.007812-9.8828 0.007812z" fill-rule="evenodd"/>
  <path d="m957.25 198.61c-13.316 18.117-13.301 29.984 0.09375 48.078 1.1445 1.5508 18.18 19.734 27.047 26.23l31.547 20.059c5.1641 2.9219 10.551 5.4883 15.977 7.9141 24.273 10.859 49.516 17.91 75.988 18.879v-194.12c-75.793 0.003906-144.23 64.215-150.65 72.957z"/>
  <path d="m932.77 189.64c-6.7383-8.7031-78.242-72.383-157.68-72.941v-0.015625c-0.17578 0-0.35156 0.007812-0.52734 0.007812s-0.35156-0.007812-0.52734-0.007812v0.015625c-79.434 0.55859-150.94 64.238-157.68 72.941-7.5039 9.6875-10.984 17.586-10.445 25.609-0.53906 8.0195 2.9414 15.922 10.445 25.609 6.7383 8.7031 78.242 72.383 157.68 72.941v0.015624c0.17578 0 0.35156-0.007812 0.52734-0.007812s0.35156 0.007812 0.52734 0.007812v-0.015624c79.434-0.55859 150.94-64.238 157.68-72.941 7.5039-9.6875 10.984-17.59 10.445-25.609 0.53906-8.0195-2.9414-15.922-10.445-25.609z"/>
  <path d="m289.16-673.1c-2.9414 3.0039-5.6719 5.8125-8.3008 8.543-5.4453-4.6719-10.492-8.5312-16.492-12.582 2.3164-3.4414 4.4922-6.6641 6.5898-9.7812-4.3672-2.9492-7.9453-5.1562-12.195-7.5781-2.0703 3.6289-3.9375 6.9102-5.8242 10.223-6.1562-3.5117-11.863-6.3281-18.004-8.9648 1.3906-3.8164 2.6719-7.375 3.9844-11.062-4.3047-1.8281-8.0898-3.2852-12.578-4.8281-1.3711 3.9688-2.5977 7.5391-3.8008 11.027-6.7969-2.3359-13.043-4.0781-20.008-5.6055 0.88672-4.0352 1.6953-7.7227 2.5273-11.504-4.4805-0.98047-8.2617-1.6758-12.871-2.3594-0.60156 4.0352-1.1562 7.7617-1.7422 11.695-7.0156-1.043-13.336-1.6055-20.227-1.8477 0.14062-3.9492 0.27734-7.8906 0.41797-11.824-4.6289-0.16016-8.7109-0.15625-13.117-0.011719v0.007812c-0.10156 0.003907-0.20313 0.007813-0.30469 0.011719 0.058594 1.7188 0.11719 3.418 0.17969 5.125-0.050782 2.3125-0.097657 4.5664-0.14063 6.7617-6.7539 0.25-12.785 0.78906-19.688 1.8086-0.60937-4.1016-1.1758-7.9492-1.7266-11.668-5.0195 0.73828-9.0312 1.4922-13.691 2.5273 0.91016 4.0781 1.7344 7.7617 2.5664 11.484-6.75 1.5039-12.785 3.2148-19.07 5.3594-1.5312-3.7656-2.9688-7.2617-4.4727-10.875-4.3984 1.5195-8.1797 2.9766-12.57 4.8516 1.6523 3.8633 3.1367 7.332 4.5859 10.727-6.6484 2.8398-12.539 5.7734-18.875 9.418-2.0586-3.5859-3.9375-6.8555-5.8672-10.211-4.0742 2.3438-7.4414 4.4375-11.453 7.1406 2.2773 3.3867 4.375 6.5156 6.5938 9.8125-6.1914 4.1719-11.531 8.2656-17.156 13.133-2.6719-3.0977-5.1445-5.957-7.7266-8.9531-3.7773 3.2695-6.9492 6.2305-10.285 9.5703 8.2148 8.2109 16.422 16.43 24.641 24.637 2.8359-2.8359 5.4297-5.2656 8.6875-8.0664-2.7422-3.1914-5.2812-6.1523-7.6953-8.9609 5.3398-4.5977 10.238-8.2969 15.508-11.867 2.4727 3.2695 4.7344 6.293 7.1211 9.4961 3.1875-2.1406 5.9375-3.8555 9.4375-5.8594-2.0664-3.6133-4.0039-7-5.8516-10.234 6.1445-3.5195 11.684-6.2383 17.902-8.8711 1.625 3.8398 3.0938 7.3047 4.5742 10.801 3.5039-1.4805 6.4727-2.6172 10.098-3.8633-1.3398-3.8867-2.5664-7.457-3.8125-11.07 6.4102-2.2031 12.223-3.8242 18.703-5.2422 0.89844 4.0898 1.7109 7.7656 2.5078 11.398 3.8477-0.84375 7.1289-1.4336 10.797-1.9727-0.58594-3.9648-1.1172-7.5664-1.707-11.566 6.2891-0.92187 12.215-1.4688 18.707-1.6914 0.13672 3.9102 0.27344 7.8164 0.41406 11.75 3.7188-0.12891 7.0391-0.14062 11.082 0.003906 0.14844-4.207 0.28516-8.1055 0.41797-11.809 6.6367 0.23438 12.68 0.94922 18.738 1.8438-0.39453 4.0781-1.3047 7.4844-1.6992 11.461 3.6602 0.54297 7.082 1.2969 10.922 2.1445 0.90234-4.0625 1.7422-7.8711 2.5508-11.508 6.7461 1.4922 12.594 3.1562 18.938 5.3633-1.3711 3.9375-2.6094 7.4922-3.8594 11.078 3.5742 1.2422 6.5469 2.3867 10.09 3.9023 1.6172-3.7812 3.0977-7.2539 4.6016-10.766 6.2695 2.6797 11.754 5.418 17.648 8.8047-2.0859 3.6328-3.957 6.8945-5.8086 10.121 3.5 2.0156 6.4102 3.8398 9.5977 5.9961 2.2422-3.3242 4.2773-6.3438 6.543-9.6953 5.4961 3.7188 10.484 7.5156 15.742 12.051-2.6172 3.0352-5.082 5.9023-7.625 8.8555 3.2266 2.7852 5.9414 5.3398 8.5352 7.9336 8.1953-8.1992 16.395-16.398 24.59-24.594-3.5469-3.5391-6.75-6.5117-10.293-9.5742z" fill-rule="evenodd"/>
  <path d="m325.38-627c-6.7383-8.7031-78.242-72.383-157.68-72.941v-0.015625c-0.17578 0-0.35156 0.007813-0.52734 0.007813-0.17578 0-0.35156-0.007813-0.52734-0.007813v0.015625c-79.434 0.55859-150.94 64.238-157.68 72.941-7.5039 9.6875-10.984 17.586-10.445 25.609-0.53906 8.0195 2.9414 15.922 10.445 25.609 6.7383 8.7031 78.242 72.383 157.68 72.941v0.015626c0.17578 0 0.35156-0.007813 0.52734-0.007813 0.17578 0 0.35156 0.007813 0.52734 0.007813v-0.015626c79.434-0.55859 150.94-64.238 157.68-72.941 7.5039-9.6875 10.984-17.59 10.445-25.609 0.54297-8.0234-2.9414-15.922-10.445-25.609z"/>
  <path d="m-181.41-842.41c0.17578 0 0.35156 0.007812 0.52734 0.007812s0.35156-0.007812 0.52734-0.007812v0.015625c48.406 0.33984 93.871 24.125 123.52 44.617 2.7383-2.7383 5.4766-5.4766 8.2148-8.2148-3.5312-3.5312-6.7383-6.5039-10.281-9.5664-2.9414 3.0039-5.6719 5.8125-8.3008 8.543-5.4453-4.6719-10.492-8.5312-16.492-12.582 2.3164-3.4414 4.4922-6.6641 6.5898-9.7812-4.3672-2.9492-7.9453-5.1562-12.195-7.5781-2.0703 3.6289-3.9375 6.9102-5.8242 10.223-6.1562-3.5117-11.863-6.3281-18.004-8.9648 1.3906-3.8164 2.6719-7.375 3.9844-11.062-4.3047-1.8281-8.0898-3.2852-12.578-4.8281-1.3711 3.9688-2.5977 7.5391-3.8008 11.027-6.7969-2.3359-13.043-4.0781-20.008-5.6055 0.88672-4.0352 1.6953-7.7227 2.5273-11.504-4.4805-0.98047-8.2617-1.6758-12.871-2.3594-0.60156 4.0352-1.1562 7.7617-1.7422 11.695-7.0156-1.043-13.336-1.6055-20.227-1.8477 0.14062-3.9492 0.27734-7.8906 0.41797-11.824-4.6289-0.16016-8.7109-0.15625-13.117-0.011719v0.007812c-0.10156 0.003907-0.20312 0.007813-0.30469 0.011719 0.058594 1.7188 0.11719 3.418 0.17969 5.125-0.050781 2.3125-0.097656 4.5664-0.14062 6.7617-6.7539 0.25-12.785 0.78906-19.688 1.8086-0.60938-4.1016-1.1758-7.9492-1.7266-11.668-5.0195 0.73828-9.0312 1.4922-13.691 2.5273 0.91016 4.0781 1.7344 7.7617 2.5664 11.484-6.75 1.5039-12.785 3.2148-19.07 5.3594-1.5312-3.7656-2.9688-7.2617-4.4727-10.875-4.3984 1.5195-8.1797 2.9766-12.57 4.8516 1.6523 3.8633 3.1367 7.332 4.5859 10.727-6.6484 2.8398-12.539 5.7734-18.875 9.418-2.0586-3.5859-3.9375-6.8555-5.8672-10.211-4.0742 2.3438-7.4414 4.4375-11.453 7.1406 2.2773 3.3867 4.375 6.5156 6.5938 9.8125-6.1914 4.1719-11.531 8.2656-17.156 13.133-2.6719-3.0977-5.1445-5.957-7.7266-8.9531-3.7773 3.2695-6.9492 6.2305-10.285 9.5703 3.6328 3.6289 7.2617 7.2617 10.895 10.895 29.48-21.043 76.801-46.949 127.34-47.305z"/>
  <path d="m-22.684-769.45c-2.6328-3.3984-15.145-15.188-34.152-28.324-5.4609 5.4609-10.918 10.922-16.379 16.379-2.5938-2.5938-5.3086-5.1484-8.5352-7.9336 2.543-2.9531 5.0078-5.8164 7.625-8.8555-5.2539-4.5352-10.242-8.3359-15.742-12.051-2.2617 3.3516-4.3008 6.3711-6.543 9.6953-3.1875-2.1562-6.0977-3.9805-9.5977-5.9961 1.8516-3.2266 3.7227-6.4883 5.8086-10.121-5.8945-3.3906-11.375-6.125-17.648-8.8047-1.5039 3.5117-2.9844 6.9883-4.6016 10.766-3.543-1.5156-6.5156-2.6602-10.09-3.9023 1.25-3.5859 2.4883-7.1406 3.8594-11.078-6.3438-2.207-12.191-3.8711-18.938-5.3633-0.80859 3.6367-1.6484 7.4453-2.5508 11.508-3.8398-0.84766-7.2578-1.6016-10.922-2.1445 0.39453-3.9766 1.3086-7.3789 1.6992-11.461-6.0586-0.89453-12.105-1.6094-18.738-1.8438-0.13281 3.7031-0.26953 7.6016-0.41797 11.809-4.043-0.14453-7.3633-0.13281-11.082-0.003907-0.13672-3.9297-0.27734-7.8398-0.41406-11.75-6.4922 0.22656-12.414 0.76953-18.707 1.6914 0.58984 4 1.1211 7.6016 1.707 11.566-3.668 0.53906-6.9492 1.1289-10.797 1.9727-0.80078-3.6328-1.6094-7.3086-2.5078-11.398-6.4805 1.418-12.289 3.0391-18.703 5.2422 1.2461 3.6133 2.4727 7.1836 3.8125 11.07-3.625 1.2461-6.5938 2.3828-10.098 3.8633-1.4805-3.4961-2.9492-6.9609-4.5742-10.801-6.2188 2.6328-11.754 5.3555-17.902 8.8711 1.8477 3.2344 3.7852 6.6211 5.8516 10.234-3.4961 2.0039-6.25 3.7188-9.4375 5.8594-2.3867-3.2031-4.6484-6.2266-7.1211-9.4961-5.2695 3.5664-10.168 7.2656-15.508 11.867 2.4141 2.8086 4.957 5.7695 7.6953 8.9609-3.2539 2.8008-5.8477 5.2266-8.6875 8.0664-4.5859-4.5781-9.1641-9.1602-13.746-13.746-16.855 12.031-27.883 22.473-30.336 25.637-7.5039 9.6875-10.984 17.586-10.445 25.609-0.53906 8.0195 2.9414 15.922 10.445 25.609 6.7383 8.7031 78.242 72.383 157.68 72.941v0.015625c0.17578 0 0.35156-0.007812 0.52734-0.007812 0.17578 0 0.35156 0.007812 0.52734 0.007812v-0.015625c79.434-0.55859 150.94-64.238 157.68-72.941 7.5039-9.6875 10.984-17.59 10.445-25.609 0.55078-8.0078-2.9297-15.906-10.434-25.594z"/>
  <path d="m-286.32-789.41c-2.7422-3.1914-5.2812-6.1523-7.6953-8.9609 5.3398-4.5977 10.238-8.2969 15.508-11.867 2.4727 3.2695 4.7344 6.293 7.1211 9.4961 3.1875-2.1406 5.9375-3.8555 9.4375-5.8594-2.0664-3.6133-4.0039-7-5.8516-10.234 6.1445-3.5195 11.684-6.2383 17.902-8.8711 1.625 3.8398 3.0938 7.3047 4.5742 10.801 3.5039-1.4805 6.4727-2.6172 10.098-3.8633-1.3398-3.8867-2.5664-7.457-3.8125-11.07 6.4102-2.2031 12.223-3.8242 18.703-5.2422 0.89844 4.0898 1.7109 7.7656 2.5078 11.398 3.8477-0.84375 7.1289-1.4336 10.797-1.9727-0.58594-3.9648-1.1172-7.5664-1.707-11.566 6.2891-0.92188 12.215-1.4688 18.707-1.6914 0.13672 3.9102 0.27344 7.8164 0.41406 11.75 3.7188-0.12891 7.0391-0.14062 11.082 0.003907 0.14844-4.207 0.28516-8.1055 0.41797-11.809 6.6367 0.23438 12.68 0.94922 18.738 1.8438-0.39453 4.0781-1.3047 7.4844-1.6992 11.461 3.6602 0.54297 7.082 1.2969 10.922 2.1445 0.90234-4.0625 1.7422-7.8711 2.5508-11.508 6.7461 1.4922 12.594 3.1562 18.938 5.3633-1.3711 3.9375-2.6094 7.4922-3.8594 11.078 3.5742 1.2422 6.5469 2.3867 10.09 3.9023 1.6172-3.7812 3.0977-7.2539 4.6016-10.766 6.2695 2.6797 11.754 5.418 17.648 8.8047-2.0859 3.6328-3.957 6.8945-5.8086 10.121 3.5 2.0156 6.4102 3.8398 9.5977 5.9961 2.2422-3.3242 4.2773-6.3438 6.543-9.6953 5.4961 3.7188 10.484 7.5156 15.742 12.051-2.6172 3.0352-5.082 5.9023-7.625 8.8555 3.2266 2.7852 5.9414 5.3398 8.5352 7.9336 5.4609-5.4609 10.918-10.922 16.379-16.379-29.656-20.496-75.117-44.277-123.52-44.617v-0.015626c-0.17578 0-0.35156 0.007813-0.52734 0.007813-0.17578 0-0.35156-0.007813-0.52734-0.007813v0.015626c-50.539 0.35547-97.863 26.262-127.34 47.305 4.582 4.582 9.1602 9.168 13.746 13.746 2.832-2.8516 5.4258-5.2812 8.6797-8.082z"/>
  <path d="m787.52-147.34h15.926c0.17969 4.0938 0.34375 7.8633 0.51953 11.852h9.8906v-11.789h16.746v11.727h9.8203v-11.707h16.527v11.668h10.07v-11.691h16.172v11.684h10.023v-34.781h-9.8867c-0.1875 4.1914-0.36328 8.1016-0.53125 11.887h-15.871v-11.793h-10.461v11.766h-15.801c-0.18359-4.0586-0.35156-7.8281-0.52734-11.738h-10.02v11.664h-16.562v-11.777h-9.8281v11.824h-16.523v-11.824h-9.8906v34.844h10.203c0.003907-4.2031 0.003907-8.1055 0.003907-11.812z" fill-rule="evenodd"/>
  <path d="m675.95-26.449h15.926c0.17969 4.0938 0.34375 7.8633 0.51953 11.852h9.8906v-11.789h16.746v11.727h9.8203v-11.707h16.527v11.668h10.07v-11.691h16.172v11.684h10.023v-34.781h-9.8867c-0.1875 4.1914-0.36328 8.1016-0.53125 11.887h-15.871v-11.793h-10.461v11.766h-15.801c-0.18359-4.0586-0.35156-7.8281-0.52734-11.738h-10.02v11.664h-16.562v-11.777h-9.8281v11.824h-16.523v-11.824h-9.8906v34.844h10.203c0.003906-4.2031 0.003906-8.1055 0.003906-11.812z" fill-rule="evenodd"/>
  <path d="m783.02-15.93c-0.1875 4.1914-0.36328 8.1016-0.53125 11.887h-15.871v-11.793h-10.461l-0.003906 11.762h-15.305c-0.11328 0.36328-0.22266 0.72266-0.34766 1.082 0.31641 2.8477 0.32422 5.7344-0.046875 8.5977-0.070313 0.52734-0.15234 1.0547-0.24609 1.5781h16.426v11.668h10.07l0.003906-11.688h16.172v11.684h10.023v-34.781z" fill-rule="evenodd"/>
  <path d="m636.57 18.855c0.1875-4.1914-0.085937-7.8867 0.085938-11.668l16.32-0.21875v11.793h10.461v-11.766h15.305c0.11328-0.36328 0.22266-0.72266 0.34766-1.082-0.31641-2.8477-0.32422-5.7344 0.046875-8.5977 0.070312-0.52734 0.15234-1.0547 0.24609-1.5781h-16.426v-11.668h-10.07v11.691h-16.172v-11.684h-10.023v34.781z" fill-rule="evenodd"/>
  <path d="m731.31-15.93c-0.1875 4.1914-0.36328 8.1016-0.53125 11.887h-15.871v-11.793h-10.461l-0.003906 11.762h-15.305c-0.11328 0.36328-0.22266 0.72266-0.34766 1.082 0.31641 2.8477 0.32422 5.7344-0.046874 8.5977-0.070313 0.52734-0.15234 1.0547-0.24609 1.5781h16.426v11.668h10.07l0.003906-11.688h16.172v11.684h10.023v-34.781z" fill-rule="evenodd"/>
  <path d="m679.46-15.93c-0.1875 4.1914-0.36328 8.1016-0.53125 11.887h-15.871v-11.793h-10.461v11.762h-15.305c-0.11328 0.36328-0.22266 0.72266-0.34766 1.082 0.31641 2.8477 0.32422 5.7344-0.046875 8.5977-0.070313 0.52734-0.15234 1.0547-0.24609 1.5781h16.426v11.668h10.07v-11.688h16.172v11.684h10.023v-34.781z" fill-rule="evenodd"/>
  <path d="m745.93-294.55c-5.1406-6.6367-47.957-45.25-103.23-63.453v12.18h-10.023v-11.684h-16.172v11.691h-10.07v-11.668h-16.527v11.707h-9.8203v-11.727h-16.746v11.789h-9.8906c-0.17578-3.9883-0.33984-7.7578-0.51953-11.852h-15.926v11.816h-10.203v-10.199c-52.371 18.902-92.32 55.004-97.277 61.402-7.5039 9.6875-10.984 17.586-10.445 25.609-0.53906 8.0195 2.9414 15.922 10.445 25.609 6.7383 8.7031 78.242 72.383 157.68 72.941v0.015625c0.17578 0 0.35156-0.007812 0.52734-0.007812 0.17578 0 0.35156 0.007812 0.52734 0.007812v-0.015625c79.434-0.55859 150.94-64.238 157.68-72.941 7.5039-9.6875 10.984-17.586 10.445-25.609 0.53516-8.0273-2.9453-15.926-10.449-25.613z"/>
  <path d="m504.94 1023.5c19.273 15.391 36.359 35.633 57.117 52.207 1.9258-1.7461 5.2578-4.9062 9.125-8.6016-20.199-16.629-51.594-48.312-56.906-53.266-3.4805 3.5586-6.6758 6.8438-9.3359 9.6602z"/>
  <path d="m851.68 1013.9c-5.3125 4.9531-36.707 36.637-56.906 53.266 3.8711 3.6953 7.2031 6.8516 9.125 8.6016 20.758-16.574 37.844-36.816 57.117-52.207-2.6523-2.8203-5.8477-6.1055-9.3359-9.6602z"/>
  <path d="m812.75 972.62c-14.879-18.359-35.672-25.535-56.355-33.477-0.48438-0.1875-0.96875-0.37891-1.4531-0.56641-12.613-6.7891-27.113-10.609-39.32-12.754l-32.641 19.145-32.641-19.145c-12.211 2.1445-26.707 5.9648-39.32 12.754-0.48438 0.1875-0.96875 0.38281-1.4531 0.56641-20.684 7.9414-41.477 15.117-56.355 33.477-7.6055 9.3828-20.902 22.93-32.641 34.855 18.484 15.18 52.152 48.438 57.148 53.406 6.0039-5.7539 12.164-11.656 15.949-15.172 0.51172 0.22266 1.043 0.44531 1.5977 0.66797v185.89h87.617 0.10156 0.10156 87.617v-185.89c0.55078-0.22266 1.0859-0.44141 1.5977-0.66797 3.7852 3.5156 9.9453 9.4219 15.949 15.172 4.9961-4.9727 38.664-38.227 57.148-53.406-11.742-11.922-25.043-25.469-32.648-34.855zm-72.812 65.457c-1.0391 3.8555-16.074 35.156-42.586 46.445l0.003906 0.003906c-0.058594 0.023438-0.11719 0.046875-0.17578 0.070312-0.058594 0.023438-0.11719 0.050782-0.17578 0.074219l-0.003906-0.003906c-26.668 10.91-59.496-0.41406-62.969-2.3828-3.8672-2.1953-6.1328-4.3516-7.0742-7.1133-1.3008-2.6094-1.2383-5.7422-0.082032-10.031 0.76562-2.832 9.0938-20.5 23.98-34.145 0.47266 1.1367 0.94922 2.2734 1.4258 3.4141 1.1445-0.47656 2.168-0.90234 3.4141-1.4258-0.58984-1.4062-1.1328-2.7148-1.6523-3.9531 1.9023-0.79297 3.5781-1.4922 5.332-2.2227 0.63281 1.3438 1.2148 2.582 1.8281 3.8945 1.1367-0.47656 2.1016-0.87891 3.3125-1.3828-0.58203-1.3945-1.125-2.6992-1.6445-3.9453 1.9727-0.82422 3.6992-1.5469 5.6055-2.3398 0.58203 1.3945 1.1094 2.6562 1.6406 3.9258 1.1523-0.48047 2.1211-0.88672 3.2852-1.3711-0.57422-1.375-1.1016-2.6406-1.6367-3.918 1.9219-0.80469 3.6367-1.5195 5.5312-2.3086 0.58594 1.4023 1.1094 2.6602 1.6289 3.9062 1.207-0.50391 2.2305-0.92969 3.3711-1.4062-0.55859-1.3398-1.0703-2.5625-1.6328-3.9141 1.8281-0.76562 3.5391-1.4766 5.4141-2.2617 0.55859 1.3398 1.0898 2.6094 1.6328 3.9102 1.2383-0.51562 2.3086-0.96484 3.3555-1.3984-0.57422-1.375-1.1406-2.7266-1.6992-4.0781 21.043-1.6289 40.766 5.3125 43.418 6.8164 3.8672 2.1953 6.1328 4.3516 7.0742 7.1133 1.2969 2.6055 1.2344 5.7383 0.078125 10.027z"/>
  <path d="m159.68 973.01c19.273 15.391 36.359 35.633 57.117 52.207 1.9258-1.7461 5.2578-4.9062 9.125-8.6016-20.199-16.629-51.594-48.312-56.906-53.266-3.4805 3.5586-6.6758 6.8438-9.3359 9.6602z"/>
  <path d="m506.42 963.35c-5.3125 4.9531-36.707 36.637-56.906 53.266 3.8711 3.6953 7.2031 6.8516 9.125 8.6016 20.758-16.574 37.844-36.816 57.117-52.207-2.6562-2.8203-5.8477-6.1055-9.3359-9.6602z"/>
  <path d="m467.49 922.1c-14.879-18.359-35.672-25.535-56.355-33.477-0.48438-0.1875-0.96875-0.37891-1.4531-0.56641-12.613-6.7891-27.113-10.609-39.32-12.754l-32.641 19.145-32.641-19.145c-12.211 2.1445-26.707 5.9648-39.32 12.754-0.48438 0.1875-0.96875 0.38281-1.4531 0.56641-20.684 7.9414-41.477 15.117-56.355 33.477-7.6055 9.3828-20.902 22.93-32.641 34.855 18.484 15.18 52.152 48.438 57.148 53.406 6.0039-5.7539 12.164-11.656 15.949-15.172 0.51172 0.22266 1.043 0.44531 1.5977 0.66797v185.89h87.617 0.10156 0.10156 87.617v-185.89c0.55078-0.22266 1.0859-0.44141 1.5977-0.66797 3.7852 3.5156 9.9453 9.4219 15.949 15.172 4.9961-4.9727 38.664-38.227 57.148-53.406-11.746-11.926-25.043-25.473-32.648-34.855z"/>
  <path d="m24.238 1339.3c19.273 15.391 36.359 35.633 57.117 52.207 1.9258-1.7461 5.2578-4.9062 9.125-8.6016-20.199-16.629-51.594-48.312-56.906-53.266-3.4805 3.5586-6.6758 6.8398-9.3359 9.6602z"/>
  <path d="m370.98 1329.6c-5.3125 4.9531-36.707 36.637-56.906 53.266 3.8711 3.6953 7.2031 6.8516 9.125 8.6016 20.758-16.574 37.844-36.816 57.117-52.207-2.6523-2.8203-5.8477-6.1016-9.3359-9.6602z"/>
  <path d="m332.05 1288.4c-14.879-18.359-35.672-25.535-56.355-33.477-0.48437-0.1875-0.96875-0.37891-1.4531-0.56641-12.613-6.7891-27.113-10.609-39.32-12.754l-32.641 19.145-32.641-19.145c-12.211 2.1445-26.707 5.9648-39.32 12.754-0.48437 0.1875-0.96875 0.38281-1.4531 0.56641-20.684 7.9414-41.477 15.117-56.355 33.477-7.6055 9.3828-20.902 22.93-32.641 34.855 18.484 15.18 52.152 48.438 57.148 53.406 6.0039-5.7539 12.164-11.656 15.949-15.172 0.51172 0.22266 1.043 0.44531 1.5977 0.66797v185.89h87.617 0.10156 0.10156 87.617v-185.89c0.55078-0.22266 1.0859-0.44141 1.5977-0.66797 3.7852 3.5156 9.9453 9.4219 15.949 15.172 4.9961-4.9727 38.664-38.227 57.148-53.406-11.742-11.926-25.043-25.473-32.648-34.855z"/>
  <path d="m95.164 983.2c-2.6484-1.5039-22.375-8.4453-43.418-6.8164 0.5625 1.3477 1.1289 2.7031 1.6992 4.0781-1.0469 0.4375-2.1172 0.88281-3.3555 1.3984-0.54297-1.3008-1.0742-2.5703-1.6328-3.9102-1.875 0.78125-3.5859 1.4961-5.4141 2.2617 0.5625 1.3516 1.0742 2.5742 1.6328 3.9141-1.1406 0.47656-2.1641 0.90234-3.3711 1.4062-0.51953-1.2461-1.0469-2.5039-1.6289-3.9062-1.8945 0.78906-3.6094 1.5078-5.5312 2.3086 0.53516 1.2773 1.0625 2.543 1.6367 3.918-1.168 0.48828-2.1328 0.89063-3.2852 1.3711-0.53125-1.2695-1.0547-2.5312-1.6406-3.9258-1.9062 0.79297-3.6328 1.5156-5.6055 2.3398 0.51953 1.2461 1.0664 2.5508 1.6445 3.9453-1.207 0.50391-2.1719 0.90625-3.3125 1.3828-0.61719-1.3086-1.1992-2.5508-1.8281-3.8945-1.7539 0.73047-3.4258 1.4297-5.332 2.2227 0.51953 1.2383 1.0625 2.5469 1.6523 3.9531-1.2461 0.51953-2.2695 0.94922-3.4141 1.4258-0.47656-1.1406-0.95312-2.2773-1.4258-3.4141-14.887 13.645-23.215 31.309-23.98 34.145-1.1602 4.2891-1.2188 7.4219 0.082032 10.031 0.94141 2.7617 3.2109 4.918 7.0742 7.1133 3.4727 1.9688 36.301 13.297 62.969 2.3828l0.003906 0.003906c0.058594-0.023438 0.11719-0.050782 0.17578-0.074219s0.11719-0.046875 0.17578-0.070313l-0.003906-0.003906c26.508-11.289 41.547-42.59 42.586-46.445 1.1602-4.293 1.2188-7.4219-0.082031-10.031-0.93359-2.7539-3.2031-4.9141-7.0703-7.1094z"/>
  <path d="m856.37 544.6c-2.4258 2.4102-5.1211 4.625-6.3828 6.0625 2.7344 2.2383 36.738 36.195 57.711 53.035 1.7266-1.5781 4.1914-3.8594 6.3828-6.0625-0.82422-0.83594-38.234-37.402-57.711-53.035z"/>
  <path d="m236 1346.5c-4.707-7.1523-9.3906-14.324-14.164-21.434-0.44141-0.66016-1.5195-1.3672-2.2305-1.2969-14.59 1.4219-28.332 5.3477-40.469 13.953-10.711 7.5938-18.617 17.578-24.887 28.965-0.33984 0.61719-0.3125 1.8086 0.066406 2.3945 9.4727 14.52 19.004 29.004 28.586 43.449 0.35937 0.54297 1.3438 0.99609 2 0.95312 2.3516-0.15625 4.6953-0.48047 7.0273-0.85938 11.371-1.8516 22.137-5.4492 31.762-11.863 11.391-7.5938 19.758-17.961 26.449-29.789 0.73828-1.3008 0.55469-2.207-0.22656-3.375-4.6758-7.0039-9.2812-14.059-13.914-21.098zm-11.582 15.793c-1.0391 0.68359-2.1016 1.3828-3.3281 2.1875-0.85156-1.293-1.6758-2.5469-2.5508-3.875-1.8594 1.2227-3.5508 2.3398-5.3672 3.5312 0.88281 1.3398 1.6797 2.5508 2.5508 3.8789-1.1289 0.74219-2.1445 1.4102-3.3398 2.1992-0.8125-1.2344-1.6328-2.4805-2.5469-3.8711-1.875 1.2344-3.5781 2.3555-5.4844 3.6094 0.83203 1.2656 1.6602 2.5195 2.5547 3.8828-1.1562 0.76172-2.1172 1.3945-3.2578 2.1445-0.82812-1.2578-1.6523-2.5078-2.5586-3.8906-1.8867 1.2422-3.6016 2.3672-5.5547 3.6562 0.8125 1.2344 1.6641 2.5273 2.5742 3.9102-1.1953 0.78906-2.1523 1.418-3.2812 2.1602-0.92969-1.2852-1.8086-2.5-2.7617-3.8164-1.7383 1.1445-3.3984 2.2344-5.2852 3.4766 0.80859 1.2305 1.6602 2.5234 2.5781 3.918-1.2344 0.8125-2.25 1.4805-3.3828 2.2266-2.5391-3.8594-5.0391-7.6562-7.6055-11.559 1.0938-0.71875 2.1055-1.3867 3.2812-2.1602 0.86328 1.3125 1.6875 2.5664 2.582 3.9258 1.8633-1.2266 3.5703-2.3477 5.4805-3.6055-0.86719-1.3203-1.6914-2.5703-2.582-3.9219 1.1602-0.76562 2.1211-1.3945 3.2617-2.1445 0.84375 1.2852 1.668 2.5352 2.5703 3.9062 1.8906-1.2422 3.6016-2.3672 5.4922-3.6133-0.80469-1.2266-1.6289-2.4766-2.5469-3.8711 1.1758-0.77344 2.1719-1.4297 3.3242-2.1875 0.91016 1.2578 1.793 2.4727 2.7383 3.7773 1.75-1.1523 3.4062-2.2422 5.2422-3.4492-0.83203-1.2656-1.6562-2.5156-2.5703-3.9023 1.1875-0.78125 2.207-1.4492 3.4727-2.2852 0.82031 1.2461 1.668 2.5352 2.5742 3.9141 1.8555-1.2188 3.4648-2.2812 5.2656-3.4648-0.76953-1.293-1.5664-2.6289-2.4219-4.0586 1.1016-0.72266 2.125-1.3945 3.2812-2.1562 2.5117 3.793 5.0117 7.5977 7.6016 11.527z"/>
  <path d="m144.83 1395c-0.46484 8.918 2.1328 12.852 10.523 15.93 0.71875 0.26172 1.4414 0.52344 2.1758 0.72656 4.6094 1.2812 9.293 2.043 14.332 2.1289-7.7617-11.797-15.348-23.328-22.965-34.898-1.7266 2.7969-3.8047 11.086-4.0664 16.113z"/>
  <path d="m238.54 1324c-1.8281-0.42578-3.7695-0.375-6.0117-0.57422 7.8359 11.906 15.398 23.402 23.07 35.062 2.3281-4.1328 4.207-13.469 4.0977-19.152-0.10938-5.6875-2.625-9.8477-7.9258-11.781-4.2734-1.5586-8.7812-2.5117-13.23-3.5547z"/>
  <path d="m679.71 1.4805v11.863h-15.969v-11.863h-10.379v11.863h-15.969v-11.863h-10.375v11.863h-15.973v-11.863h-10.375v11.863h-15.973v-11.863h-10.375v11.863h-15.969v-11.863h-10.379v11.863h-15.969v-11.863h-10.375v34.781h10.375v-11.863h15.969v11.863h10.379v-11.863h15.969v11.863h10.375v-11.863h15.973v11.863h10.375v-11.863h15.973v11.863h10.375v-11.863h15.969v11.863h10.379v-11.863h15.969v11.863h10.375v-34.781z" fill-rule="evenodd"/>
  <path d="m2206.8 605.49v11.867h-15.973v-11.867h-10.375v11.867h-15.969v-11.867h-10.379v11.867h-15.969v-11.867h-10.379v11.867h-15.969v-11.867h-10.375v11.867h-15.973v-11.867h-10.375v11.867h-15.969v-11.867h-10.379v34.781h10.379v-11.863h15.969v11.863h10.375v-11.863h15.973v11.863h10.375v-11.863h15.969v11.863h10.379v-11.863h15.969v11.863h10.379v-11.863h15.969v11.863h10.375v-11.863h15.973v11.863h10.375v-34.781z" fill-rule="evenodd"/>
  <path d="m2234.5 387.18c0-21.566 0.074219-43.133-0.12891-64.695-0.019531-1.9961-1.3047-4.9805-2.8945-5.8164-32.664-17.203-67-27.965-104.45-26.668-33.043 1.1484-63.492 11.207-92.438 26.484-1.5664 0.82812-3.1641 3.375-3.1719 5.1289-0.17578 43.656-0.16797 87.316-0.011719 130.97 0.007813 1.6367 1.4453 3.9609 2.8867 4.7773 5.1641 2.9219 10.551 5.4883 15.977 7.9141 26.48 11.848 54.109 19.184 83.238 19.012 34.469-0.20703 66.422-10.43 96.867-26.051 3.3477-1.7188 4.2227-3.875 4.1953-7.4141-0.14062-21.211-0.070313-42.426-0.070313-63.645zm-17.34 17.305h-10.375v-11.863h-15.969v11.863h-10.375v-11.863h-15.969v11.863h-10.375v-11.863h-15.969v11.863h-10.375v-11.863h-15.969v11.863h-10.375v-11.863h-15.969v11.863h-10.375v-11.863h-15.969v11.863h-10.375v-34.781h10.375v11.863h15.969v-11.863h10.375v11.863h15.969v-11.863h10.375v11.863h15.969v-11.863h10.375v11.863h15.969v-11.863h10.375v11.863h15.969v-11.863h10.375v11.863h15.969v-11.863h10.375z"/>
  <path d="m1975.3 362.75c-13.316 18.117-13.301 29.984 0.09375 48.078 1.1445 1.5508 2.3047 3.0938 3.5742 4.543 7.9258 9.0742 16.719 17.164 27.203 24.324v-105.2c-7.5273 3.4844-23.363 18.043-30.871 28.258z"/>
  <path d="m2293.6 369.57c-6.8398-9.1992-14.996-17.449-22.914-25.797-3.2539-3.4297-7.4102-6.0078-11.855-9.5312v105.69c10.621-5.4688 27.496-22.512 35.129-34.613 7.6406-12.113 8.1133-24.355-0.35938-35.75z"/>
  <path d="m156.52 193.56c4.9766 3.9727 9.3867 9.1992 14.75 13.48 0.49609-0.45312 1.3555-1.2656 2.3555-2.2227-5.2148-4.293-13.32-12.477-14.695-13.754-0.89844 0.91797-1.7227 1.7656-2.4102 2.4961z"/>
  <path d="m246.06 191.07c-1.3711 1.2773-9.4766 9.4609-14.695 13.754 1 0.95313 1.8594 1.7695 2.3555 2.2227 5.3594-4.2812 9.7734-9.5078 14.75-13.48-0.6875-0.73047-1.5117-1.5781-2.4102-2.4961z"/>
  <path d="m207.61 195.75l0.83984 1.0117-1.3633 1.1328-0.83984-1.0117-0.88672 0.73438 0.84375 1.0117-1.3672 1.1328-0.83984-1.0117-0.88672 0.73438 0.83984 1.0156-1.3633 1.1289-0.83984-1.0117-0.88672 0.73438 0.83984 1.0117-1.3633 1.1328-0.83984-1.0117-0.88672 0.73438 0.83984 1.0156-1.3594 1.1289-0.84375-1.0117-0.88672 0.73438 0.84375 1.0117-1.3633 1.1328-0.84375-1.0117-0.88672 0.73438 2.4648 2.9727 0.88672-0.73828-0.83984-1.0117 1.3633-1.1328 0.83984 1.0117 0.88672-0.73438-0.83984-1.0117 1.3633-1.1328 0.83984 1.0156 0.88672-0.73828-0.83984-1.0117 1.3633-1.1328 0.83984 1.0156 0.88672-0.73828-0.83984-1.0117 1.3633-1.1328 0.83984 1.0117 0.88672-0.73438-0.83984-1.0117 1.3633-1.1328 0.83984 1.0117 0.88672-0.73438-0.83984-1.0117 1.3633-1.1328 0.83984 1.0117 0.88672-0.73438-2.4648-2.9688z"/>
  <path d="m236 180.41c-3.8398-4.7422-9.2109-6.5938-14.551-8.6445-0.125-0.046875-0.25-0.097656-0.375-0.14453-3.2578-1.7539-7-2.7383-10.152-3.293l-8.4297 4.9414-8.4258-4.9414c-3.1523 0.55078-6.8984 1.5391-10.152 3.293-0.125 0.046875-0.25 0.097656-0.375 0.14453-5.3398 2.0508-10.711 3.9023-14.551 8.6445-1.9648 2.4219-5.3984 5.9219-8.4297 9 4.7734 3.9219 13.465 12.508 14.754 13.793 1.5508-1.4844 3.1406-3.0078 4.1172-3.918 0.13281 0.058594 0.26953 0.11719 0.41406 0.17188v48h22.625 0.023438 0.023437 22.625v-48c0.14453-0.058594 0.28125-0.11719 0.41406-0.17188 0.97656 0.91016 2.5664 2.4336 4.1172 3.918 1.293-1.2852 9.9844-9.8711 14.754-13.793-3.0273-3.0781-6.4609-6.5742-8.4258-9zm-44.613 35.391c-0.21094-0.03125-0.42188-0.082032-0.62891-0.13281-2.4258-0.59766-3.2695-1.6094-3.4141-4.1016-0.082031-1.4023 0.23828-3.7695 0.63281-4.6016 2.4727 2.9805 4.9336 5.9492 7.457 8.9844-1.4023 0.13281-2.7266 0.0625-4.0469-0.14844zm24.512-14.16c-1.4922 3.4922-3.4961 6.6289-6.4258 9.0898-2.4766 2.0781-5.3555 3.4102-8.4531 4.2773-0.63672 0.17578-1.2773 0.33984-1.9258 0.45703-0.17969 0.03125-0.46875-0.0625-0.58594-0.20312-3.1055-3.7188-6.2031-7.4453-9.2812-11.188-0.125-0.15234-0.16797-0.48047-0.089844-0.66406 1.3906-3.3555 3.2773-6.3711 6.0195-8.8125 3.1055-2.7656 6.8008-4.2773 10.809-5.125 0.19531-0.042968 0.51562 0.125 0.66016 0.29297 1.5469 1.8281 3.0703 3.6719 4.5977 5.5156 1.5039 1.8125 3.0039 3.6289 4.5156 5.4297 0.25 0.29688 0.32812 0.54297 0.16016 0.92969zm1.1367-3.582c-2.4922-3-4.9453-5.9609-7.4883-9.0273 0.62891-0.015625 1.1641-0.089844 1.6875-0.027344 1.2695 0.15234 2.5508 0.27734 3.7852 0.57813 1.5312 0.37109 2.3594 1.4531 2.5664 3.0273 0.20312 1.5781-0.03125 4.2305-0.55078 5.4492z"/>
  <path d="m429.69 180.68c4.9766 3.9727 9.3867 9.1992 14.75 13.48 0.49609-0.45312 1.3555-1.2656 2.3555-2.2227-5.2148-4.293-13.32-12.477-14.695-13.754-0.89844 0.92188-1.7227 1.7695-2.4102 2.4961z"/>
  <path d="m519.22 178.19c-1.3711 1.2773-9.4766 9.4609-14.695 13.754 1 0.95313 1.8594 1.7695 2.3555 2.2227 5.3594-4.2812 9.7734-9.5078 14.75-13.48-0.68359-0.73047-1.5078-1.5781-2.4102-2.4961z"/>
  <path d="m509.17 167.54c-3.8398-4.7422-9.2109-6.5938-14.551-8.6445-0.125-0.046875-0.25-0.097656-0.375-0.14453-3.2578-1.7539-7-2.7383-10.152-3.293l-8.4297 4.9414-8.4258-4.9414c-3.1523 0.55078-6.8984 1.5391-10.152 3.293-0.125 0.046875-0.25 0.097656-0.375 0.14453-5.3398 2.0508-10.711 3.9023-14.551 8.6445-1.9648 2.4219-5.3984 5.9219-8.4297 9 4.7734 3.9219 13.465 12.508 14.754 13.793 1.5508-1.4844 3.1406-3.0078 4.1172-3.918 0.13281 0.058594 0.26953 0.11719 0.41406 0.17188v48h22.625 0.023437 0.023438 22.625v-48c0.14453-0.058594 0.28125-0.11719 0.41406-0.17188 0.97656 0.91016 2.5664 2.4336 4.1172 3.918 1.293-1.2852 9.9844-9.8711 14.754-13.793-3.0273-3.0781-6.4648-6.5781-8.4258-9z"/>
  <path d="m484.89 183.16c-1.6172-1.9492-3.2266-3.9023-4.8672-5.8398-0.15234-0.17969-0.49219-0.35156-0.69922-0.30859-4.2422 0.89453-8.1523 2.4961-11.441 5.4258-2.9023 2.582-4.8984 5.7773-6.3711 9.3281-0.078125 0.19531-0.03125 0.54297 0.097656 0.70312 3.2617 3.9609 6.5352 7.9062 9.8242 11.84 0.125 0.14844 0.42969 0.25 0.62109 0.21484 0.68359-0.125 1.3672-0.29688 2.0391-0.48047 3.2812-0.91797 6.3281-2.3242 8.9492-4.5273 3.1016-2.6055 5.2227-5.9258 6.8047-9.6211 0.17188-0.40625 0.09375-0.66797-0.17578-0.98438-1.6016-1.9062-3.1875-3.832-4.7812-5.75zm-0.26953 2.8672l-0.9375 0.77734-0.89062-1.0703-1.4453 1.1992 0.89062 1.0742-0.9375 0.77734-0.89062-1.0742-1.4453 1.1992 0.89062 1.0742-0.9375 0.77734-0.89062-1.0742-1.4414 1.1953 0.89062 1.0742-0.9375 0.77734-0.89062-1.0742-1.4414 1.1992 0.89062 1.0742-0.9375 0.77734-0.89062-1.0742-1.4414 1.1992 0.89062 1.0742-0.9375 0.77734-0.89062-1.0742-1.4453 1.1992 0.88672 1.0742-0.9375 0.77734-2.6094-3.1445 0.9375-0.77734 0.89062 1.0742 1.4453-1.1992-0.89062-1.0703 0.94141-0.77734 0.89062 1.0742 1.4414-1.1953-0.89062-1.0742 0.9375-0.77734 0.89062 1.0703 1.4414-1.1992-0.89062-1.0742 0.94141-0.77734 0.89062 1.0742 1.4414-1.1992-0.89062-1.0742 0.9375-0.77734 0.89062 1.0742 1.4453-1.1992-0.89063-1.0742 0.9375-0.77734 0.89063 1.0742 1.4414-1.1992-0.89062-1.0703 0.9375-0.77734z"/>
  <path d="m459.62 200.4c0.15625 2.6367 1.0469 3.707 3.6172 4.3398 0.21875 0.054688 0.44141 0.10547 0.66406 0.14062 1.3984 0.22656 2.7969 0.29688 4.2812 0.15625-2.668-3.2148-5.2773-6.3555-7.8906-9.5078-0.41797 0.88281-0.75781 3.3867-0.67188 4.8711z"/>
  <path d="m488.91 177.14c-1.3086-0.32031-2.6641-0.45312-4.0078-0.61328-0.55078-0.066407-1.1211 0.011718-1.7852 0.027343 2.6914 3.2461 5.2891 6.375 7.9258 9.5547 0.55078-1.2891 0.79688-4.0977 0.57812-5.7617-0.21484-1.6719-1.0898-2.8125-2.7109-3.207z"/>
  <path d="m2028.6 339.73c-2.7422-3.1914-5.2812-6.1523-7.6953-8.9609 5.3398-4.5977 10.238-8.3008 15.508-11.867 2.4727 3.2695 4.7344 6.293 7.1211 9.4961 3.1875-2.1406 5.9375-3.8555 9.4375-5.8594-2.0664-3.6133-4.0039-7-5.8516-10.238 6.1445-3.5195 11.684-6.2383 17.902-8.8711 1.625 3.8398 3.0938 7.3047 4.5742 10.801 3.5039-1.4805 6.4727-2.6172 10.098-3.8672-1.3398-3.8867-2.5664-7.457-3.8125-11.07 6.4102-2.2031 12.223-3.8242 18.703-5.2422 0.89844 4.0898 1.7109 7.7656 2.5078 11.398 3.8477-0.84375 7.1289-1.4336 10.797-1.9727-0.58594-3.9648-1.1172-7.5664-1.707-11.566 6.2891-0.92188 12.215-1.4688 18.707-1.6953 0.13672 3.9102 0.27344 7.8164 0.41406 11.75 3.7188-0.12891 7.0391-0.14062 11.082 0.003906 0.14844-4.2031 0.28516-8.1016 0.41797-11.809 6.6367 0.23438 12.68 0.94922 18.738 1.8438-0.39453 4.082-1.3047 7.4844-1.6992 11.461 3.6602 0.54297 7.082 1.2969 10.922 2.1445 0.90234-4.0625 1.7422-7.8711 2.5508-11.508 6.7461 1.4922 12.594 3.1562 18.938 5.3633-1.3711 3.9375-2.6094 7.4922-3.8594 11.078 3.5742 1.2422 6.5469 2.3906 10.09 3.9023 1.6172-3.7773 3.0977-7.2539 4.6016-10.766 6.2695 2.6797 11.754 5.418 17.648 8.8047-2.0859 3.6328-3.957 6.8945-5.8086 10.121 3.5 2.0117 6.4102 3.8398 9.5977 5.9961 2.2422-3.3203 4.2773-6.3438 6.543-9.6953 5.4961 3.7188 10.484 7.5156 15.742 12.051-2.6172 3.0391-5.082 5.9023-7.625 8.8555 3.2266 2.7852 5.9414 5.3398 8.5352 7.9336 5.4609-5.4609 10.918-10.922 16.379-16.383-29.656-20.496-75.117-44.277-123.52-44.617v-0.015625c-0.17578 0-0.35156 0.007812-0.52734 0.007812-0.17578 0-0.35156-0.007812-0.52734-0.007812v0.015625c-50.539 0.35547-97.863 26.262-127.34 47.305 4.582 4.582 9.1602 9.168 13.746 13.746 2.832-2.8398 5.4258-5.2656 8.6797-8.0664z"/>
  <path d="m2560.2 306.36c0.32812-0.042969 0.66016-0.089844 0.98828-0.13281-0.32813 0.046876-0.66016 0.089844-0.98828 0.13281z"/>
  <path d="m2753.6 401.83s-4.5977-12.875-8.0469-17.52c-6.8398-9.1992-14.996-17.449-22.914-25.797-2.8477-3-6.3828-5.3477-10.199-8.2461v49.207h-28.422v-60.773c-2.3086-1.7422-4.6484-3.4102-7.0898-5.0625-2.2617 3.3555-4.3008 6.375-6.543 9.6953-3.1875-2.1562-6.0977-3.9805-9.5977-5.9961 1.8516-3.2266 3.7227-6.4883 5.8086-10.121-5.8945-3.3906-11.375-6.125-17.648-8.8047-1.5039 3.5156-2.9844 6.9883-4.6016 10.766-3.543-1.5156-6.5156-2.6602-10.09-3.9023 1.25-3.582 2.4883-7.1406 3.8594-11.078-6.3438-2.207-12.191-3.8711-18.938-5.3633-0.80859 3.6367-1.6484 7.4453-2.5508 11.508-3.8398-0.84766-7.2578-1.6016-10.922-2.1445 0.39453-3.9727 1.3086-7.3789 1.6992-11.461-6.0586-0.89453-12.105-1.6094-18.738-1.8438-0.13281 3.7031-0.26953 7.6016-0.41797 11.809-4.043-0.14453-7.3633-0.13281-11.082-0.003907-0.13672-3.9336-0.27734-7.8398-0.41406-11.75-4.3086 0.15234-8.3711 0.45703-12.457 0.90234-1.0352 0.11719-2.0742 0.23438-3.1055 0.37109-0.32812 0.042969-0.66016 0.085938-0.98828 0.13281-0.71875 0.10156-1.4297 0.21875-2.1484 0.32813 0.58984 3.9805 1.1172 7.5742 1.6992 11.527-3.668 0.53906-6.9492 1.1289-10.797 1.9727-0.79688-3.6289-1.6055-7.3008-2.5078-11.387-0.41406 0.089843-0.82812 0.17969-1.2422 0.26953-5.9844 1.3516-11.465 2.9023-17.465 4.9648 1.2461 3.6133 2.4727 7.1836 3.8125 11.07-3.625 1.2461-6.5938 2.3828-10.098 3.8672-1.4805-3.4961-2.9492-6.9609-4.5742-10.801-6.2188 2.6328-11.754 5.3555-17.902 8.8711 1.8477 3.2344 3.7852 6.6211 5.8516 10.238-3.4961 2.0039-6.25 3.7188-9.4375 5.8594-2.3867-3.207-4.6484-6.2266-7.1211-9.4961-0.73437 0.49609-1.4414 1.0156-2.1641 1.5195l0.015625 64.316h-28.422v-50.082c-7.6523 3.75-22.766 18.301-30.527 28.09-7.6289 9.625-10.871 24.344-10.871 24.344-0.53906 8.4727 2.9414 16.82 10.445 27.059 6.7383 9.1953 78.242 76.477 157.68 77.066v0.015625c0.17578 0 0.35156-0.007813 0.52734-0.007813s0.35156 0.007813 0.52734 0.007813v-0.015625c79.434-0.58984 150.94-67.871 157.68-77.066 7.5039-10.234 10.984-18.582 10.445-27.055z"/>
  <path d="m184.03 42.191c0.003906 0.003906 0.007812 0.003906 0.007812 0.007813 0.15234-0.15234 0.30078-0.30859 0.45312-0.46484-0.15234 0.15234-0.30469 0.30078-0.46094 0.45703z"/>
  <path d="m181.65 44.781c-0.082032 0.097656-0.16406 0.19531-0.24219 0.28906 0.082032-0.097656 0.16016-0.19141 0.24609-0.28906h-0.003906z"/>
  <path d="m184.7 41.523c0.21875-0.21875 0.44922-0.42969 0.67188-0.64453-0.22266 0.21094-0.44922 0.42578-0.67188 0.64453z"/>
  <path d="m184.49 41.734c0.070313-0.070313 0.14062-0.14062 0.21094-0.20703-0.070313 0.066406-0.14062 0.13672-0.21094 0.20703z"/>
  <path d="m242.11 19.352s-3.4062-2.2383-5.0625-2.7227c-3.2773-0.96094-6.7031-1.457-10.086-2.0195-1.2188-0.20312-2.4805-0.125-3.9102-0.12891l8.8438 11.707-6.7617 5.1094-10.922-14.453c-0.86328 0-1.7188 0.023438-2.5977 0.070312 0.066406 1.2031 0.12109 2.2891 0.1875 3.4805-1.1445 0.058594-2.168 0.14844-3.3594 0.30078-0.14062-1.1016-0.28125-2.2109-0.4375-3.4531-2.0117 0.25391-3.8086 0.58594-5.7812 1.0781 0.27344 1.1055 0.54688 2.1992 0.83984 3.3867-1.1172 0.27734-2.0273 0.53906-3.1016 0.88672-0.34766-1.0781-0.69141-2.1445-1.0742-3.3281-1.9062 0.61719-3.5977 1.2695-5.4688 2.1289 0.46094 1.0117 0.94531 2.0664 1.4609 3.1953-1.0664 0.48828-2.0156 0.92188-2.9844 1.4531-0.62109-1.0156-1.0156-1.9922-1.6562-3.0312-1.6016 0.875-3.168 1.793-4.7891 2.9297 0.63672 0.90234 1.3008 1.8555 2.0234 2.8828-0.98828 0.69141-1.7773 1.293-2.6367 1.9922-0.73828-0.91016-1.4727-1.8164-2.2109-2.7227-1 0.80859-1.9102 1.6133-2.8008 2.4531-0.22656 0.21484-0.45312 0.42969-0.67187 0.64453-0.070313 0.070313-0.14063 0.14062-0.21094 0.20703-0.15234 0.15234-0.30078 0.30859-0.45312 0.46484 0.85547 0.84375 1.6289 1.6016 2.4766 2.4375-0.77344 0.78516-1.4492 1.5156-2.2148 2.4102-0.84375-0.71875-1.6953-1.4492-2.6445-2.2578-0.082031 0.097656-0.16406 0.19141-0.24609 0.28906-1.1797 1.3984-2.207 2.75-3.2617 4.3203 0.94531 0.63672 1.8789 1.2656 2.8984 1.9492-0.63672 0.94922-1.1406 1.75-1.707 2.7344-0.98047-0.56641-1.9531-1.125-3.0312-1.7461-1.0039 1.7461-1.832 3.3867-2.6641 5.3281 1.0234 0.4375 2.0898 0.89453 3.2305 1.3828-0.47266 1.1055-0.81641 2.0078-1.1914 3.0898-1.1445-0.33203-2.2227-0.64453-3.3984-0.98047-0.085938 0.25-0.16016 0.5-0.24219 0.75l11.559 15.301-6.7617 5.1094-9.0039-11.914c-1.1445 2.2656-2.125 8.4453-2.2148 12.168-0.085937 3.6602 1.7891 7.7461 1.7891 7.7461 1.3945 2.1133 3.7227 3.4727 7.3477 4.5586 3.2578 0.97656 32.355 4.1289 51.359-10.008l0.003906 0.003906c0.042969-0.03125 0.082032-0.066406 0.125-0.097656 0.042969-0.03125 0.085938-0.0625 0.125-0.09375l-0.003906-0.003906c18.789-14.418 23.707-43.273 23.656-46.672-0.039062-3.7852-0.71094-6.3945-2.3633-8.3164z"/>
  <path d="m31.746 42.191c0.003906 0.003906 0.007812 0.003906 0.007812 0.007813 0.15234-0.15234 0.30078-0.30859 0.45312-0.46484-0.15234 0.15234-0.30469 0.30078-0.46094 0.45703z"/>
  <path d="m29.371 44.781c-0.082032 0.097656-0.16406 0.19531-0.24219 0.28906 0.082032-0.097656 0.16016-0.19141 0.24609-0.28906h-0.003906z"/>
  <path d="m32.422 41.523c0.21875-0.21875 0.44922-0.42969 0.67188-0.64453-0.22656 0.21094-0.45312 0.42578-0.67188 0.64453z"/>
  <path d="m32.207 41.734c0.070313-0.070313 0.14062-0.14062 0.21094-0.20703-0.070313 0.066406-0.14062 0.13672-0.21094 0.20703z"/>
  <path d="m58.402 49.027c0 5.2617-7.8906 5.2617-7.8906 0 0-5.2617 7.8906-5.2617 7.8906 0"/>
  <path d="m51.207 38.363c0 4.9883-7.4844 4.9883-7.4844 0 0-4.9922 7.4844-4.9922 7.4844 0"/>
  <path d="m48.531 51.645c0 3.4883-5.2344 3.4883-5.2344 0s5.2344-3.4883 5.2344 0"/>
  <path d="m55.445 25.926c0 4.4102-6.6172 4.4102-6.6172 0 0-4.4102 6.6172-4.4102 6.6172 0"/>
  <path d="m57.996 9.6133c0 3.9062-5.8594 3.9062-5.8594 0 0-3.9102 5.8594-3.9102 5.8594 0"/>
  <path d="m78.047 83.023c-1.2266-5.0156-13.492-33.453-14.16-35.008l-4.9492-12.852-0.10938-13.406c0.13672-0.14062 0.28906-0.30078 0.44141-0.47266 0.65625-0.73828 1.2344-1.5469 1.0273-2.4336-0.25391-1.0781-1.4688-1.3438-2.0547-1.4688-0.63281-0.13672-1.4961-0.26172-2.5664-0.36328-2.0234-0.19531-4.5859-0.30859-7.0352-0.30859-1.5195 0-3.6914 0.042968-5.4336 0.25781-1.1914 0.14453-3.4062 0.41797-3.5742 2.0586-0.039062 0.35938-0.12109 1.168 1.6133 2.7812v13.766c-1.4336 3.5078-17.125 41.859-18.324 44.473-0.66016 1.4375-2.0352 5.1445-0.57031 8.4648 0.92578 2.0977 2.7656 3.5977 5.4727 4.4648 0.39844 0.12891 1.0664 0.33984 11.402 0.33984 7.8086 0 18.16-0.12109 25.008-0.20312 3.4688-0.042969 6.207-0.074219 7.2383-0.074219 0.17188 0 0.29297 0 0.36328 0.003907h0.089843c1 0 2.1836-0.53516 3.2461-1.3984 0.21094-0.074219 0.35938-0.14844 0.42578-0.22266 0.125-0.14062 0.23047-0.30469 0.33203-0.47266 0.19531-0.20312 0.38281-0.41406 0.5625-0.64062 1.6406-2.0859 2.1914-4.6758 1.5547-7.2852zm-35.414-47.176v-14.664s-1.6836-1.4336-1.6211-2.0117c0.078125-0.76562 3.6758-1.0703 7.625-1.0703 4.8164 0 10.156 0.45313 10.301 1.0703 0.11719 0.49219-1.5117 2.0117-1.5117 2.0117l0.11328 14.246 5.0469 13.113s1.332 3.0781 3.1719 7.418h-31.363c4.2656-10.395 8.2383-20.113 8.2383-20.113z"/>
 </g>
</svg>
