<?xml version="1.0" encoding="UTF-8"?>
<svg width="100pt" height="100pt" version="1.1" viewBox="0 0 100 100" xmlns="http://www.w3.org/2000/svg">
 <path d="m81.68 88.922c0.60156 0.92969 0.32031 2.1719-0.60938 2.7617-0.32031 0.21484-0.69922 0.31641-1.0703 0.31641-0.66016 0-1.3008-0.32812-1.6914-0.92188-7.7305-12.07-4.3594-19.621-0.44922-28.371 2.8789-6.4375 6.1406-13.727 6.1406-24.797 0-17.141-12.141-22.621-17.359-24.18-11.09-3.3086-24.578-1.7188-33.57 3.9688-8.7383 5.5312-12.238 16.141-9.1406 27.699 0.14844 0.55859 0.050781 1.1484-0.26953 1.6289-1.0508 1.5586-2.2109 3.3516-3.3789 5.1406-1.1719 1.8008-2.3516 3.6094-3.3984 5.1797-0.37891 0.55859-0.89062 1.3281-0.87891 1.8281 0.011719 0.37891 0.39062 0.87109 0.92188 1.2109 0.76172 0.48047 2.5781 1.2695 3.7383 1.6719 0.5 0.17969 0.92188 0.55078 1.1484 1.0312 0.23047 0.48047 0.26172 1.0391 0.078125 1.5391-0.30859 0.85156-0.48047 1.7109-0.55859 2.8281 1.1992-0.10156 2.6992 0 5.1289 0.55859 1.0781 0.25 1.75 1.3203 1.5 2.3984-0.25 1.0781-1.3281 1.7383-2.3984 1.5-0.73828-0.17187-1.3516-0.28906-1.8711-0.35937 0.42969 1.3398 0.41016 2.7812 0.39062 4.1289l-0.011719 0.64844c0 0.46094-0.039062 0.91016-0.078124 1.3711-0.050782 0.64844-0.10938 1.2617-0.011719 1.7383 0.23828 1.2188 1.5312 2.0898 2.6992 2.4219 1.5586 0.44141 3.3398 0.26172 5.1797 0.019531l0.41016-0.050781c1.9883-0.26172 4.0391-0.53125 6.1797-0.17188 4.4414 0.76172 8.3398 3.9492 9.4805 7.75 0.32031 1.0586-0.28125 2.1719-1.3398 2.4883-0.21094 0.070312-0.39844 0.10156-0.58984 0.10156-0.85938 0-1.6484-0.55859-1.9102-1.4219-0.69922-2.3281-3.4219-4.4688-6.3281-4.9609-1.5391-0.26172-3.2109-0.039063-4.9805 0.19141l-0.41016 0.050781c-2.1719 0.28125-4.4805 0.5-6.7695-0.14062-2.8711-0.80078-5.0508-2.9609-5.5508-5.5-0.19922-1.0312-0.12109-2-0.050781-2.8516 0.03125-0.35938 0.058594-0.71094 0.058594-1.0703l0.011718-0.67969c0.039063-2.5703-0.058593-3.2891-1.1016-3.9102-0.17969-0.10938-0.32812-0.25-0.46094-0.39844-0.058593-0.039063-0.12891-0.070313-0.19922-0.12109-0.66016-0.51953-1.0312-1.3203-1.0312-2.2188 0-1.5 0.10156-2.7109 0.30859-3.8086-0.98828-0.42188-2.0781-0.92188-2.8086-1.3789-1.6992-1.0703-2.7383-2.75-2.7891-4.4883-0.039062-1.7695 0.92188-3.1992 1.5508-4.1602 1.0508-1.5586 2.2109-3.3516 3.3789-5.1406 0.98828-1.5312 1.9883-3.0508 2.9102-4.4414-3.0898-12.789 1.1992-24.98 11.09-31.23 10.082-6.3594 24.543-8.1016 36.863-4.4219 6.0781 1.8203 20.219 8.1797 20.219 28.012 0 11.922-3.5898 19.969-6.4805 26.43-3.8477 8.6289-6.3984 14.332 0.16016 24.582zm-9.6094-35.133c0.66016 0.89063 0.57031 2.1016-0.21094 2.8789l-3.1992 3.1914c-0.78125 0.78125-1.9883 0.87109-2.8789 0.21094l-2.4688-1.8281c-0.10156-0.078126-0.21875-0.019532-0.26172 0-1.2383 0.69922-2.5781 1.25-3.9688 1.6484-0.10156 0.03125-0.17188 0.10156-0.17969 0.17969l-0.46094 3.0391c-0.16016 1.0703-1.1016 1.8789-2.1914 1.8789h-4.5117c-1.0898 0-2.0312-0.80859-2.1914-1.8789l-0.46094-3.0508c-0.011719-0.078125-0.078126-0.14844-0.17969-0.17969-1.3984-0.39844-2.7383-0.96094-3.9805-1.6484-0.03125-0.019531-0.14844-0.070313-0.25 0l-2.4805 1.8281c-0.89062 0.66016-2.1016 0.57031-2.8789-0.21094l-3.1992-3.1992c-0.78125-0.78125-0.87109-1.9883-0.21094-2.8789l1.8281-2.4688c0.078125-0.10156 0.019531-0.21875 0-0.26172-0.69922-1.2383-1.25-2.5781-1.6484-3.9805-0.03125-0.10156-0.10156-0.17188-0.17969-0.17969l-3.0391-0.46094c-1.0703-0.16016-1.8789-1.1016-1.8789-2.1914v-4.5117c0-1.0898 0.80859-2.0312 1.8789-2.1914l3.0391-0.46094c0.078125-0.011719 0.14844-0.078125 0.17188-0.17969 0.39844-1.3984 0.96094-2.7383 1.6602-3.9883 0.019531-0.03125 0.070313-0.14844 0-0.25l-1.8281-2.4688c-0.66016-0.89062-0.57031-2.1016 0.21094-2.8789l3.1992-3.1914c0.78125-0.78125 1.9883-0.87109 2.8789-0.21094l2.4688 1.8281c0.10156 0.078125 0.21875 0.019532 0.26172 0 1.2383-0.69141 2.5703-1.25 3.9688-1.6484 0.10156-0.03125 0.17187-0.10156 0.17969-0.17969l0.46094-3.0508c0.16016-1.0703 1.1016-1.8789 2.1914-1.8789h4.5117c1.0898 0 2.0312 0.80859 2.1914 1.8789l0.46094 3.0391c0.011719 0.078126 0.078125 0.14844 0.17969 0.17969 1.3984 0.39844 2.7383 0.96094 3.9883 1.6602 0.03125 0.019532 0.14844 0.070313 0.25 0l2.4688-1.8281c0.89062-0.66016 2.1016-0.57031 2.8789 0.21094l3.1992 3.1992c0.78125 0.78125 0.87109 1.9883 0.21094 2.8789l-1.8281 2.4688c-0.078126 0.10156-0.019532 0.21875 0 0.26172 0.69922 1.2383 1.25 2.5781 1.6484 3.9805 0.03125 0.10156 0.10156 0.17188 0.17969 0.17969l3.0391 0.46094c1.0703 0.16016 1.8789 1.1016 1.8789 2.1914v4.5117c0 1.0898-0.80859 2.0312-1.8789 2.1914l-3.0391 0.46094c-0.078124 0.011719-0.14844 0.078125-0.17187 0.17969-0.39844 1.3984-0.96094 2.7383-1.6602 3.9883-0.019531 0.03125-0.070312 0.14844 0 0.25zm-9.0703-11.789c0-4.9609-4.0391-9-9-9s-9 4.0391-9 9 4.0391 9 9 9 9-4.0391 9-9z"/>
</svg>
