<?xml version="1.0" encoding="UTF-8"?>
<svg id="Layer_1" xmlns="http://www.w3.org/2000/svg" version="1.1" viewBox="0 0 144 144">
  <!-- Generator: Adobe Illustrator 29.6.0, SVG Export Plug-In . SVG Version: 2.1.1 Build 207)  -->
  <defs>
    <style>
      .st0 {
        fill: #a73d2a;
      }

      .st1 {
        fill: #fff;
      }
    </style>
  </defs>
  <rect class="st0" width="144" height="144"/>
  <g>
    <path class="st1" d="M45.51,61.19s.01,0,.01.01c.23-.23.45-.46.67-.69-.23.23-.45.45-.69.68Z"/>
    <path class="st1" d="M41.98,65.04c-.12.15-.24.29-.36.43.12-.15.24-.28.37-.43,0,0,0,0,0,0Z"/>
    <path class="st1" d="M46.52,60.19c.33-.33.67-.64,1-.96-.34.31-.67.63-1,.96Z"/>
    <path class="st1" d="M46.2,60.51c.1-.1.21-.21.31-.31-.1.1-.21.2-.31.31Z"/>
    <path class="st1" d="M85.2,71.36c0,7.83-11.75,7.83-11.75,0s11.75-7.83,11.75,0"/>
    <path class="st1" d="M74.48,55.49c0,7.43-11.14,7.43-11.14,0,0-7.43,11.14-7.43,11.14,0"/>
    <path class="st1" d="M70.5,75.26c0,5.19-7.79,5.19-7.79,0s7.79-5.19,7.79,0"/>
    <path class="st1" d="M80.79,36.97c0,6.57-9.85,6.57-9.85,0,0-6.57,9.85-6.57,9.85,0"/>
    <path class="st1" d="M84.59,12.68c0,5.82-8.72,5.82-8.72,0,0-5.82,8.72-5.82,8.72,0"/>
    <path class="st1" d="M114.44,121.98c-1.83-7.47-20.09-49.8-21.08-52.12l-7.37-19.13-.16-19.96c.2-.21.43-.45.66-.7.98-1.1,1.84-2.3,1.53-3.62-.38-1.61-2.19-2-3.06-2.19-.94-.2-2.23-.39-3.82-.54-3.01-.29-6.83-.46-10.47-.46-2.26,0-5.5.06-8.09.38-1.77.22-5.07.62-5.32,3.06-.06.54-.18,1.74,2.4,4.14v20.49c-2.13,5.22-25.5,62.32-27.28,66.21-.98,2.14-3.03,7.66-.85,12.6,1.38,3.12,4.12,5.36,8.15,6.65.59.19,1.59.51,16.97.51,11.63,0,27.04-.18,37.23-.3,5.16-.06,9.24-.11,10.78-.11.26,0,.44,0,.54,0h.13c1.49,0,3.25-.8,4.83-2.08.31-.11.54-.22.63-.33.19-.21.34-.45.49-.7.29-.3.57-.62.84-.95,2.44-3.11,3.26-6.96,2.31-10.85h0ZM61.72,51.74v-21.83s-2.51-2.13-2.41-2.99c.12-1.14,5.47-1.59,11.35-1.59,7.17,0,15.12.67,15.34,1.59.17.73-2.25,2.99-2.25,2.99l.17,21.21,7.51,19.52s1.98,4.58,4.72,11.04h-46.69c6.35-15.48,12.26-29.94,12.26-29.94h0Z"/>
  </g>
</svg>