<?xml version="1.0" encoding="UTF-8"?>
<svg width="100pt" height="100pt" version="1.1" viewBox="0 0 100 100" xmlns="http://www.w3.org/2000/svg">
 <path d="m34.754 65.254c12.137 0.089844 20.949 2.5 29.855 7.082-8.2969-6.2109-15.473-8.8555-27.848-9.6094l12.691-10.383c10.324-0.81641 19.867 0.28125 29.262 2.2734-9.668-3.8477-17.676-4.375-27.781-4.2383l18.434-17.68c5.1211 1.2578 9.4844 1.2148 14.805 0.53516-4.8633 0.19141-8.7227 0.0625-13.383-2.0625l17.273-15.914-25.953 21.57c-1.6523-4.4727-2.6133-8.5078-2.1016-13.953-1.6641 5.6641-0.49219 10.16 0.25391 15.734l-18.645 16.078c0.94531-7.3828 0.48828-15.352-4.3164-22.523 1.5391 3.8867 6.082 17.504 1.5586 24.562l-19.074 16.008c-8.8555-55.699 29.762-51.855 70.25-59.195-7.2344 46.551-2.6406 81.172-66.82 64.43l-9.7852 8.2461c-1.5742 1.3242-6.082-3.0039-1.3555-2.9492l22.684-18.012z" fill-rule="evenodd"/>
</svg>
