<?xml version="1.0" encoding="UTF-8"?>
<svg width="100pt" height="100pt" version="1.1" viewBox="0 0 100 100" xmlns="http://www.w3.org/2000/svg">
 <g>
  <path d="m48.125 52.812h-35.625v25.312c0 2.4883 0.98828 4.8711 2.7461 6.6289 1.7578 1.7578 4.1406 2.7461 6.6289 2.7461h26.25zm-10.91 21.898v0.003906c-0.73047 0.73047-1.918 0.73047-2.6484 0l-3.3164-3.3164-3.3164 3.3164c-0.73438 0.71875-1.9102 0.71094-2.6367-0.015625-0.72656-0.72656-0.73047-1.9023-0.011719-2.6367l3.3164-3.3125-3.3125-3.3125h-0.003906c-0.35547-0.35156-0.55859-0.83203-0.5625-1.332s0.19531-0.98047 0.54688-1.3359c0.35547-0.35156 0.83594-0.55078 1.3359-0.54688 0.50391 0 0.98047 0.20312 1.332 0.5625l3.3125 3.3164 3.3164-3.3164c0.34766-0.35938 0.82812-0.5625 1.3281-0.5625 0.5-0.003906 0.98047 0.19531 1.3359 0.54688 0.35547 0.35547 0.55078 0.83594 0.55078 1.3359-0.003906 0.50391-0.20703 0.98047-0.56641 1.332l-3.3164 3.3125 3.3125 3.3125h0.003906c0.35156 0.35156 0.55078 0.82812 0.55078 1.3281 0 0.49609-0.19922 0.97266-0.55078 1.3242z"/>
  <path d="m48.125 49.062v-36.562h-26.25c-5.1758 0-9.375 4.1992-9.375 9.375v27.188zm-23.438-19.688h4.6875v-4.6875c0-1.0352 0.83984-1.875 1.875-1.875s1.875 0.83984 1.875 1.875v4.6875h4.6875c1.0352 0 1.875 0.83984 1.875 1.875s-0.83984 1.875-1.875 1.875h-4.6875v4.6875c0 1.0352-0.83984 1.875-1.875 1.875s-1.875-0.83984-1.875-1.875v-4.6875h-4.6875c-1.0352 0-1.875-0.83984-1.875-1.875s0.83984-1.875 1.875-1.875z"/>
  <path d="m51.875 52.812v34.688h26.25c2.4883 0 4.8711-0.98828 6.6289-2.7461 1.7578-1.7578 2.7461-4.1406 2.7461-6.6289v-25.312zm23.438 21.562h-13.125c-1.0352 0-1.875-0.83984-1.875-1.875s0.83984-1.875 1.875-1.875h13.125c1.0352 0 1.875 0.83984 1.875 1.875s-0.83984 1.875-1.875 1.875zm0-7.5h-13.125c-1.0352 0-1.875-0.83984-1.875-1.875s0.83984-1.875 1.875-1.875h13.125c1.0352 0 1.875 0.83984 1.875 1.875s-0.83984 1.875-1.875 1.875z"/>
  <path d="m51.875 49.062h35.625v-27.188c0-5.1758-4.1992-9.375-9.375-9.375h-26.25zm10.312-19.688h13.125c1.0352 0 1.875 0.83984 1.875 1.875s-0.83984 1.875-1.875 1.875h-13.125c-1.0352 0-1.875-0.83984-1.875-1.875s0.83984-1.875 1.875-1.875z"/>
 </g>
</svg>
