<?xml version="1.0" encoding="UTF-8"?>
<svg id="Layer_1" xmlns="http://www.w3.org/2000/svg" version="1.1" viewBox="0 0 100 100">
  <!-- Generator: Adobe Illustrator 29.6.0, SVG Export Plug-In . SVG Version: 2.1.1 Build 207)  -->
  <defs>
    <style>
      .st0 {
        fill: #fff;
        fill-rule: evenodd;
      }
    </style>
  </defs>
  <path class="st0" d="M66.54,76.68c-3.63,1.58-7.64,2.46-11.85,2.46s-8.22-.88-11.85-2.46l-3.72,10.23c-.52,1.44-.31,3.04.57,4.29s2.31,2,3.84,2h22.33c1.53,0,2.96-.74,3.84-2,.88-1.25,1.09-2.85.57-4.29l-3.72-10.23ZM50,85.38h9.38c.86,0,1.56-.7,1.56-1.56s-.7-1.56-1.56-1.56h-9.38c-.86,0-1.56.7-1.56,1.56s.7,1.56,1.56,1.56ZM35.18,65.07h4.2c3.95,3.87,9.35,6.25,15.31,6.25,12.07,0,21.88-9.8,21.88-21.88,0-5.02-1.69-9.64-4.54-13.33-.78.7-1.68,1.27-2.66,1.68,2.54,3.2,4.07,7.25,4.07,11.65,0,10.35-8.4,18.75-18.75,18.75-3.83,0-7.39-1.15-10.36-3.12h8.8c.86,0,1.56-.7,1.56-1.56v-6.25c0-.86-.7-1.56-1.56-1.56H18.75c-.86,0-1.56.7-1.56,1.56v6.25c0,.86.7,1.56,1.56,1.56h12.56c5.05,7.54,13.64,12.5,23.38,12.5,15.52,0,28.12-12.6,28.12-28.12,0-7.48-2.93-14.3-7.71-19.34-.13,1.25-.51,2.43-1.08,3.5,3.54,4.31,5.67,9.83,5.67,15.84,0,13.8-11.2,25-25,25-7.89,0-14.93-3.66-19.51-9.38h0ZM71.45,10.04c-1.73-1.06-4.01-.91-5.59.51l-27.63,24.88c-1.39,1.25-1.86,3.13-1.36,4.81l-3.32,2.98c-.64.57-.7,1.56-.12,2.2l4.18,4.64c.58.64,1.56.7,2.2.12l3.07-2.76c1.74,1.2,4.14,1.09,5.79-.39l11.52-10.37c-2.3-1.71-3.8-4.45-3.8-7.54,0-5.17,4.2-9.38,9.38-9.38,3.44,0,6.45,1.86,8.08,4.62l2.46-2.21c.93-.83,1.48-2,1.54-3.24.04-.62-.05-1.23-.26-1.81l3.84-3.45c.64-.58.69-1.57.12-2.21l-4.18-4.64c-.57-.64-1.57-.69-2.21-.11l-3.71,3.34ZM38.62,42.87l-1.81,1.63,2.09,2.32,1.81-1.63-2.09-2.32ZM65.77,21.32c-4.31,0-7.81,3.5-7.81,7.81s3.5,7.81,7.81,7.81,7.81-3.5,7.81-7.81-3.5-7.81-7.81-7.81ZM73.68,12.23l2.09,2.32,2.41-2.17-2.09-2.32-2.41,2.17Z"/>
</svg>