<?xml version="1.0" encoding="UTF-8"?>
<svg width="100pt" height="100pt" version="1.1" viewBox="0 0 100 100" xmlns="http://www.w3.org/2000/svg">
 <path d="m56 56c0-3.3008-2.6992-6-6-6s-6 2.6992-6 6 2.6992 6 6 6c1.8984 0 3.6016-0.89844 4.6992-2.3008l15.398 6.8008 1.1992-2.6992-15.398-6.8008c0.10156-0.30078 0.10156-0.69922 0.10156-1zm24.801-21.5c0.80078 0.80078 2 0.80078 2.8008 0l2.1016-2.1016c0.80078-0.80078 0.80078-2 0-2.8008l-9.3008-9.3008c-0.80078-0.80078-2-0.80078-2.8008 0l-2.1016 2.1016c-0.80078 0.80078-0.80078 2 0 2.8008l1.8008 1.8008-2.3008 2.3008c-4.8008-3.8008-10.602-6.3008-17-7.1016v-3.1992h9c1.1016 0 2-0.89844 2-2v-3c0-1.1016-0.89844-2-2-2h-26c-1.1016 0-2 0.89844-2 2v3c0 1.1016 0.89844 2 2 2h9v3.1992c-16.898 2-30 16.301-30 33.801 0 18.801 15.199 34 34 34s34-15.199 34-34c0-7.8984-2.6992-15.301-7.3008-21l2.3008-2.3008zm-2.8008 20.699h-6v1.5h6c-0.19922 7.1992-3.1016 13.602-7.6992 18.5l-4.1992-4.1992-1.1016 1.1016 4.1992 4.1992c-4.8984 4.6016-11.301 7.5-18.5 7.6992v-6h-1.5v6c-7.1992-0.19922-13.602-3.1016-18.5-7.6992l4.1992-4.1992-1-1.1016-4.1992 4.1992c-4.6016-4.8984-7.5-11.301-7.6992-18.5h6v-1.5h-6c0.19922-7.1992 3.1016-13.602 7.6992-18.5l4.1992 4.1992 1.1016-1.1016-4.1992-4.1992c4.8984-4.6016 11.301-7.5 18.5-7.6992v6h1.5v-6c7.1992 0.19922 13.602 3.1016 18.5 7.6992l-4.3008 4.3008 1.1016 1.1016 4.1992-4.1992c4.5977 4.8008 7.5 11.301 7.6992 18.398z"/>
</svg>
