<?xml version="1.0" encoding="UTF-8"?>
<svg width="100pt" height="100pt" version="1.1" viewBox="0 0 100 100" xmlns="http://www.w3.org/2000/svg">
 <path d="m72.594 68.672c-0.85938 0-1.5625 0.70312-1.5625 1.5625v17.266c0 0.85938-0.70312 1.5625-1.5625 1.5625h-51.109c-0.85938 0-1.5625-0.70312-1.5625-1.5625v-71.812c0-0.85938 0.70312-1.5625 1.5625-1.5625h4.875v1.625c0 0.85938 0.70312 1.5625 1.5625 1.5625s1.5625-0.70312 1.5625-1.5625v-1.625h6.4375v1.625c0 0.85938 0.70312 1.5625 1.5625 1.5625s1.5625-0.70312 1.5625-1.5625v-1.625h6.4375v1.625c0 0.85938 0.70312 1.5625 1.5625 1.5625s1.5625-0.70312 1.5625-1.5625v-1.625h6.4375v1.625c0 0.85938 0.70312 1.5625 1.5625 1.5625s1.5625-0.70312 1.5625-1.5625v-1.625h6.4375v1.625c0 0.85938 0.70312 1.5625 1.5625 1.5625s1.5625-0.70312 1.5625-1.5625v-1.625h4.875c0.85938 0 1.5625 0.70312 1.5625 1.5625v19.234c0 0.85938 0.70312 1.5625 1.5625 1.5625s1.5625-0.70312 1.5625-1.5625v-19.234c0-2.5781-2.1094-4.6875-4.6875-4.6875h-4.875v-1.625c0-0.85938-0.70312-1.5625-1.5625-1.5625s-1.5625 0.70312-1.5625 1.5625v1.625h-6.4375v-1.625c0-0.85938-0.70312-1.5625-1.5625-1.5625s-1.5625 0.70312-1.5625 1.5625v1.625h-6.4375v-1.625c0-0.85938-0.70312-1.5625-1.5625-1.5625s-1.5625 0.70312-1.5625 1.5625v1.625h-6.4375v-1.625c0-0.85938-0.70312-1.5625-1.5625-1.5625s-1.5625 0.70312-1.5625 1.5625v1.625h-6.4375v-1.625c0-0.85938-0.70312-1.5625-1.5625-1.5625s-1.5625 0.70312-1.5625 1.5625v1.625h-4.875c-2.5781 0-4.6875 2.1094-4.6875 4.6875v71.812c0 2.5781 2.1094 4.6875 4.6875 4.6875h51.109c2.5781 0 4.6875-2.1094 4.6875-4.6875v-17.266c0-0.85938-0.70312-1.5625-1.5625-1.5625z"/>
 <path d="m64.625 24.547h-33.375c-0.85938 0-1.5625 0.70312-1.5625 1.5625s0.70312 1.5625 1.5625 1.5625h33.375c0.85938 0 1.5625-0.70312 1.5625-1.5625s-0.70312-1.5625-1.5625-1.5625z"/>
 <path d="m23.469 35.625h40.594c0.85938 0 1.5625-0.70312 1.5625-1.5625s-0.70312-1.5625-1.5625-1.5625h-40.594c-0.85938 0-1.5625 0.70312-1.5625 1.5625s0.70312 1.5625 1.5625 1.5625z"/>
 <path d="m66.188 41.234c0-0.85938-0.70312-1.5625-1.5625-1.5625h-41.156c-0.85938 0-1.5625 0.70312-1.5625 1.5625s0.70312 1.5625 1.5625 1.5625h41.141c0.85938 0 1.5625-0.70312 1.5625-1.5625z"/>
 <path d="m62.5 49.203c0-0.85938-0.70312-1.5625-1.5625-1.5625h-37.469c-0.85938 0-1.5625 0.70312-1.5625 1.5625s0.70312 1.5625 1.5625 1.5625h37.469c0.85938 0 1.5625-0.70312 1.5625-1.5625z"/>
 <path d="m58.219 56.375c0-0.85938-0.70312-1.5625-1.5625-1.5625h-33.188c-0.85938 0-1.5625 0.70312-1.5625 1.5625s0.70312 1.5625 1.5625 1.5625h33.172c0.85938 0 1.5625-0.70312 1.5625-1.5625z"/>
 <path d="m51.844 64.344c0-0.85938-0.70312-1.5625-1.5625-1.5625h-26.812c-0.85938 0-1.5625 0.70312-1.5625 1.5625s0.70312 1.5625 1.5625 1.5625h26.812c0.85938 0 1.5625-0.70312 1.5625-1.5625z"/>
 <path d="m48.656 71.5c0-0.85938-0.70312-1.5625-1.5625-1.5625h-23.625c-0.85938 0-1.5625 0.70312-1.5625 1.5625s0.70312 1.5625 1.5625 1.5625h23.625c0.85938 0 1.5625-0.70312 1.5625-1.5625z"/>
 <path d="m23.469 77.906c-0.85938 0-1.5625 0.70312-1.5625 1.5625s0.70312 1.5625 1.5625 1.5625h22.031c0.85938 0 1.5625-0.70312 1.5625-1.5625s-0.70312-1.5625-1.5625-1.5625z"/>
 <path d="m86.266 41.344c-0.20312-1.5625-1.0156-2.9375-2.2656-3.8906-2.5938-1.9531-6.2812-1.4531-8.25 1.1406l-22.609 29.859c-0.078125 0.10938-0.14062 0.21875-0.1875 0.32812s-0.09375 0.21875-0.10938 0.32812c0 0.03125-0.015625 0.078125-0.015625 0.10938l-1.75 9.4062c-0.10938 0.57812 0.10938 1.1719 0.59375 1.5312 0.26562 0.20312 0.60938 0.3125 0.9375 0.3125 0.23438 0 0.46875-0.046875 0.6875-0.15625l8.5781-4.25 0.09375-0.046875c0.10938-0.046875 0.21875-0.10938 0.29688-0.1875 0.09375-0.078125 0.17188-0.17188 0.25-0.26562l22.625-29.859c0.9375-1.25 1.3438-2.7969 1.125-4.3594zm-30.812 30.844 0.39062-2.1406 0.71875-0.95312 4.4062 3.3438-0.71875 0.95312-1.9375 0.95312zm20.109-28.172 1.875-2.4844 4.4062 3.3438-1.8906 2.4844z"/>
</svg>
